<svg height="512" viewBox="0 0 512 512" width="512" xmlns="http://www.w3.org/2000/svg"><g id="Flat"><path d="m464 75.649-25.79 22.4a260.261 260.261 0 0 1 -32.25 23.84q-8.325 5.25-17.14 9.97c-3.98 2.13-8.04 4.19-12.15 6.14a306 306 0 0 1 -45.59 17.45c-40.56 11.94-82.94 15.45-122.3 10.14l-34.47-4.66-14.31-44.58 25.79-22.4a268.994 268.994 0 0 1 49.39-33.81 304.7 304.7 0 0 1 57.74-23.59 310.725 310.725 0 0 1 46.62-9.92 297.477 297.477 0 0 1 33.81-2.58 276.132 276.132 0 0 1 41.87 2.36l34.47 4.66z" fill="#c04a42"/><path d="m344 128-8 8v16h-24v32h-32v-76a28 28 0 1 1 56 0v4z" fill="#cb84d3"/><path d="m318.48 82.029-22.48 29.971-3.654 40.2a52.563 52.563 0 0 1 -52.346 47.8l18.86-89.15a36.922 36.922 0 0 1 36.41-30.85h12.73a27.867 27.867 0 0 1 10.48 2.029z" fill="#5f4bbc"/><path d="m448 128c-8 32-27.479 70.959-32 80-8 16-80 8-80 8l-8 16h-64.25l-15.75-16-9.257 32.4a32.541 32.541 0 0 1 -31.289 23.6 32.541 32.541 0 0 1 -30.871-22.251l-32.583-97.749 32-8 32 96 9.652-33.782a30.634 30.634 0 0 1 29.455-22.218h136.893l32-48v-12a24 24 0 0 1 9.6-19.2l22.4-16.8v-6.7a9.3 9.3 0 0 1 9.3-9.3 9.3 9.3 0 0 1 8.821 6.358l4.34 13.02a9.3 9.3 0 0 1 -1.382 8.519z" fill="#cb84d3"/><path d="m344 350.6c0-20.193-24.391-30.333-38.706-16.091l-86.356 85.911a40.071 40.071 0 0 0 -10.938 27.509 40.07 40.07 0 0 0 40.069 40.071h149.715a10.216 10.216 0 0 0 10.216-10.217 10.215 10.215 0 0 0 -4.96-8.76l-35.04-21.023-16 8-96-8 81.352-81.352a22.7 22.7 0 0 0 6.648-16.048z" fill="#cb84d3"/><path d="m288 304h-86.962a33.038 33.038 0 0 0 -33.038 33.036v14.964c0 .74 8 104 8 104l-26.534 13.267a9.888 9.888 0 0 0 -5.466 8.843 9.889 9.889 0 0 0 9.889 9.89h54.111v-136h80z" fill="#cb84d3"/><path d="m440 440a16 16 0 0 0 -16-16 16 16 0 0 1 -16-16 16 16 0 0 0 -16-16h-4.183a16 16 0 0 1 -15.292-11.3l-21.119-68.635a101.387 101.387 0 0 0 -25.214-41.878 14.17 14.17 0 0 1 -3.423-14.5l5.231-23.687a107.334 107.334 0 0 1 -48-48l-18.492 11.557a30.1 30.1 0 0 0 2.492 52.443v144a96 96 0 0 0 96 96h96a16 16 0 0 0 16-16 16 16 0 0 0 -16-16 16 16 0 0 1 -16-16z" fill="#5f4bbc"/><circle cx="168" cy="135.999" fill="#c8534b" r="56"/><rect fill="#4c3aa3" height="16" rx="8" width="40" x="384" y="415.999"/><rect fill="#4c3aa3" height="16" rx="8" width="40" x="416" y="447.999"/><path d="m340.6 383.758c-33.829-35.636-50.7-70.036-57.079-85.2a7.993 7.993 0 0 1 4.843-10.682l.022-.007a8 8 0 0 1 9.9 4.47 230.1 230.1 0 0 0 10.943 22.2 293.706 293.706 0 0 0 43.016 58.25 7.988 7.988 0 0 1 -.165 11.138 8.014 8.014 0 0 1 -11.48-.169z" fill="#4c3aa3"/><path d="m365.279 460.322c-37.356-17.345-63.646-63.232-72.938-81.507a7.992 7.992 0 0 1 3.888-10.92l.031-.014a7.994 7.994 0 0 1 10.367 3.656c8.528 16.635 32.829 59.139 65.267 74.223a8.01 8.01 0 0 1 4.254 9.794 7.971 7.971 0 0 1 -10.869 4.768z" fill="#4c3aa3"/><path d="m382.929 52.787-9.579-28.738a297.477 297.477 0 0 0 -33.81 2.58l4.86 14.571 38.271 11.9z" fill="#af3b34"/><path d="m358.507 81.951 38.403 13.266.109-.154-13.945-41.839-.406-.126z" fill="#af3b34"/><path d="m397.091 95.28-.181-.063-23.452 33.148 3.212 9.635c4.11-1.95 8.17-4.01 12.15-6.14q8.805-4.71 17.14-9.97z" fill="#af3b34"/><path d="m358.507 81.951-.374.447 15.325 45.967 23.452-33.148z" fill="#a3332c"/><path d="m382.668 53.098-38.271-11.901 13.519 40.55.591.204z" fill="#a3332c"/><path d="m136 407.547v-47.547c0-147.952 56-192 56-224a24 24 0 0 0 -24-24c-6.627 0-12.271 3.074-16.971 7.029-34.029 28.636-111.029 152.971-111.029 256.971v40a16 16 0 0 0 16 16 15.994 15.994 0 0 0 16-16 16 16 0 0 0 16 16 16 16 0 0 0 16-16 16 16 0 0 0 16 16 16 16 0 0 0 16-16z" fill="#d87474"/><g fill="#cc6968"><path d="m61 392.067c-.309-36.269 8.125-79.462 8.485-81.283l15.7 3.1c-.085.426-8.48 43.436-8.185 78.046z"/><path d="m109.224 384.677-16-.347c.1-4.551.231-9.122.394-13.588l15.989.582c-.155 4.388-.286 8.881-.383 13.353z"/><path d="m110.556 351.547-15.972-.95c1.226-20.614 3.183-40.522 5.816-59.171l15.843 2.237c-2.574 18.224-4.487 37.699-5.687 57.884z"/><path d="m118.753 277.483-15.774-2.675a458.181 458.181 0 0 1 13.084-56.752l15.3 4.673a442.341 442.341 0 0 0 -12.61 54.754z"/><path d="m136.279 208.042-15.018-5.52a142.8 142.8 0 0 1 7.739-18.057l14 7.735-7-3.867 7.013 3.85a132.691 132.691 0 0 0 -6.734 15.859z"/></g><circle cx="80" cy="223.999" fill="#e59090" r="16"/><path d="m64 159.999h16v16h-16z" fill="#e59090"/><path d="m48 111.999h16v16h-16z" fill="#e59090"/><path d="m48 463.999h16v16h-16z" fill="#e59090"/><path d="m80 479.999h16v16h-16z" fill="#e59090"/></g></svg>