<svg height="512" viewBox="0 0 512 512" width="512" xmlns="http://www.w3.org/2000/svg"><g id="Flat"><g fill="#46349e"><path d="m104 232a24 24 0 0 0 -24 24v50.335a32 32 0 0 0 20.115 29.711l19.885 7.954v-40l-8-8v-24h72l24-32v-8z"/><path d="m384 288 48 38.593c-8 17.407-33.233 20.041-48 9.407l-24-16v-32z"/><path d="m280 312v46.059a81.941 81.941 0 0 0 24 57.941l-24 48-1.689.845a25.887 25.887 0 0 0 -14.311 23.155h40l40-64v-112z"/><path d="m80 104v8a24 24 0 0 0 24 24h8v-32z"/></g><path d="m392 376v-65.5a48 48 0 0 0 -37.587-46.857l-34.413-7.643-72-56-27.692-66.462a48 48 0 0 0 -44.308-29.538h-64v48l24 48h32v56h-8a24 24 0 0 0 -24 24v50.335a32 32 0 0 0 20.115 29.711l19.885 7.954v-40l-8-8v-24h26.667l14.284 21.427a32 32 0 0 0 19.431 13.43l91.618 21.143a64.721 64.721 0 0 0 35.777 57.888l28.223 14.112-24 40-1.689.845a25.887 25.887 0 0 0 -14.311 23.155h40l48-72z" fill="#5f4bbc"/><path d="m232 84a45.309 45.309 0 0 1 -25.04 40.52l-22.96 11.48 7.06-14.11a84.621 84.621 0 0 0 8.94-37.89 20 20 0 0 0 -40 0v20h-48v-20c0-1.34.04-2.68.14-4a59.8 59.8 0 0 1 17.43-38.43c1.37-1.37 2.81-2.68 4.31-3.91a59.851 59.851 0 0 1 34.12-13.52c1.32-.1 2.66-.14 4-.14a59.775 59.775 0 0 1 36.39 12.29 59.881 59.881 0 0 1 11.32 11.32 59.74 59.74 0 0 1 12.29 36.39z" fill="#a961b2"/><path d="m136 64v16h-23.86a59.426 59.426 0 0 1 3.28-16z" fill="#b267ba"/><path d="m159.16 52.42-14.32 7.16-10.96-21.92a59.6 59.6 0 0 1 13.67-8.46z" fill="#b267ba"/><path d="m184 25.2v22.8h-16v-23.86c1.32-.1 2.66-.14 4-.14a60.075 60.075 0 0 1 12 1.2z" fill="#b267ba"/><path d="m219.71 47.61-14.05 14.05-11.32-11.32 14.05-14.05a59.881 59.881 0 0 1 11.32 11.32z" fill="#b267ba"/><path d="m272 84a45.309 45.309 0 0 1 -25.04 40.52l-22.96 11.48 7.06-14.11a84.621 84.621 0 0 0 8.94-37.89 20 20 0 0 0 -40 0v20h-48v-20c0-1.34.04-2.68.14-4a59.8 59.8 0 0 1 17.43-38.43c1.37-1.37 2.81-2.68 4.31-3.91a59.851 59.851 0 0 1 34.12-13.52c1.32-.1 2.66-.14 4-.14a59.793 59.793 0 0 1 36.25 12.18 61.011 61.011 0 0 1 6.18 5.39 59.159 59.159 0 0 1 5.17 5.9 59.773 59.773 0 0 1 12.4 36.53z" fill="#c378cb"/><path d="m176 64v16h-23.86a59.426 59.426 0 0 1 3.28-16z" fill="#cb84d3"/><path d="m199.16 52.42-14.32 7.16-10.96-21.92a59.6 59.6 0 0 1 13.67-8.46z" fill="#cb84d3"/><path d="m224 25.2v22.8h-16v-23.86c1.32-.1 2.66-.14 4-.14a60.075 60.075 0 0 1 12 1.2z" fill="#cb84d3"/><path d="m259.6 47.47-13.89 14.14-11.42-11.22 13.96-14.21a61.011 61.011 0 0 1 6.18 5.39 59.159 59.159 0 0 1 5.17 5.9z" fill="#cb84d3"/><path d="m136 136h16v16h-16z" fill="#362684"/><rect fill="#4c3aa3" height="48" rx="8" width="16" x="160" y="152"/><rect fill="#4c3aa3" height="40" rx="8" width="16" x="312" y="312"/><path d="m236 304h-28.888a8 8 0 0 1 -8-8 8 8 0 0 1 8-8h24.888a8 8 0 0 0 6.4-3.2l14.4-19.2a8 8 0 0 1 11.2-1.6 8 8 0 0 1 1.6 11.2l-16.8 22.4a16 16 0 0 1 -12.8 6.4z" fill="#4c3aa3"/><rect fill="#4c3aa3" height="16" rx="8" width="46.886" x="169.114" y="248"/><path d="m176 104-.149 31.812 16 .15a24 24 0 0 0 24.224-23.774l-.075-8.188z" fill="#5f4bbc"/><path d="m208 104v8a16.019 16.019 0 0 1 -16 16h-16a8 8 0 0 0 0 16h16a32.036 32.036 0 0 0 32-32v-8z" fill="#4c3aa3"/></g></svg>