<svg height="512" viewBox="0 0 512 512" width="512" xmlns="http://www.w3.org/2000/svg"><g id="Flat"><circle cx="256" cy="256" fill="#a45bad" r="232"/><circle cx="256" cy="256" fill="#a961b2" r="136"/><path d="m256 24c-128.13 0-232 103.87-232 232s103.87 232 232 232 232-103.87 232-232-103.87-232-232-232zm0 384a152 152 0 1 1 152-152 152 152 0 0 1 -152 152z" fill="#5f4bbc"/><g fill="#4c3aa3"><path d="m264 24.14v80.07q-3.975-.21-8-.21t-8 .21v-80.07c2.66-.09 5.32-.14 8-.14s5.34.05 8 .14z"/><path d="m264 407.79v80.07h-16v-80.07q3.975.21 8 .21t8-.21z"/><path d="m183.47 122.38a152.633 152.633 0 0 0 -13.63 8.38l-40.09-69.43q6.7-4.35 13.72-8.25z"/><path d="m375.46 454.91q-6.84 4.125-13.99 7.78l-40.08-69.43a149.99 149.99 0 0 0 14.06-7.65z"/><path d="m124.88 179.06a150.6 150.6 0 0 0 -7.38 14.22l-69.51-40.13q3.555-7.185 7.6-14.09z"/><path d="m457.48 371.09q-3.975 6.96-8.42 13.61l-69.51-40.13a149.2 149.2 0 0 0 8.64-13.49z"/><path d="m104 256q0 4.02.21 8h-80.07c-.09-2.66-.14-5.32-.14-8s.05-5.34.14-8h80.07q-.21 3.975-.21 8z"/><path d="m488 256c0 2.68-.05 5.34-.14 8h-80.07q.21-3.975.21-8t-.21-8h80.07c.09 2.66.14 5.32.14 8z"/><path d="m128.53 338.84-69.35 40.03q-4.245-6.765-8.01-13.85l69.35-40.04a152.085 152.085 0 0 0 8.01 13.86z"/><path d="m460.83 146.98-69.35 40.04a152.085 152.085 0 0 0 -8.01-13.86l69.35-40.03q4.245 6.765 8.01 13.85z"/><path d="m187.02 391.48-40.04 69.35q-7.08-3.765-13.85-8.01l40.03-69.35a152.085 152.085 0 0 0 13.86 8.01z"/><path d="m378.87 59.18-40.03 69.35a152.085 152.085 0 0 0 -13.86-8.01l40.04-69.35q7.08 3.765 13.85 8.01z"/></g><path d="m215.855 142.394h15.999v72h-15.999z" fill="#9d52a5" transform="matrix(.924 -.383 .383 .924 -51.228 99.243)"/><path d="m280.146 297.606h15.999v72h-15.999z" fill="#9d52a5" transform="matrix(.924 -.383 .383 .924 -105.73 135.66)"/><path d="m142.394 280.145h71.999v16h-71.999z" fill="#9d52a5" transform="matrix(.924 -.383 .383 .924 -96.69 90.203)"/><path d="m297.606 215.855h71.999v16h-71.999z" fill="#9d52a5" transform="matrix(.924 -.383 .383 .924 -60.271 144.706)"/><path d="m170.394 187.855h16v71.999h-16z" fill="#9d52a5" transform="matrix(.383 -.924 .924 .383 -96.69 303.003)"/><path d="m325.606 252.146h16v71.999h-16z" fill="#9d52a5" transform="matrix(.383 -.924 .924 .383 -60.272 486.087)"/><path d="m187.854 325.606h72v15.999h-72z" fill="#9d52a5" transform="matrix(.383 -.924 .924 .383 -170.025 412.745)"/><path d="m252.146 170.394h72v15.999h-72z" fill="#9d52a5" transform="matrix(.383 -.924 .924 .383 13.057 376.33)"/><path d="m248 208-2.366-7.1a36.424 36.424 0 0 1 4.248-31.724 36.43 36.43 0 0 0 6.118-20.205v-12.971l11.625 23.249a19.571 19.571 0 0 1 0 17.5 19.566 19.566 0 0 0 -1.062 14.938l5.437 16.313z" fill="#bc70c4"/><path d="m264 304 2.366 7.1a36.424 36.424 0 0 1 -4.248 31.724 36.43 36.43 0 0 0 -6.118 20.205v12.971l-11.625-23.249a19.571 19.571 0 0 1 0-17.5 19.566 19.566 0 0 0 1.062-14.938l-5.437-16.313z" fill="#bc70c4"/><path d="m227.716 295.6-3.347 6.693a36.424 36.424 0 0 1 -25.436 19.428 36.433 36.433 0 0 0 -18.614 9.962l-9.172 9.172 8.22-24.66a19.567 19.567 0 0 1 12.375-12.375 19.567 19.567 0 0 0 11.314-9.812l7.689-15.379z" fill="#bc70c4"/><path d="m284.284 216.4 3.347-6.693a36.424 36.424 0 0 1 25.436-19.428 36.433 36.433 0 0 0 18.614-9.962l9.172-9.172-8.22 24.66a19.567 19.567 0 0 1 -12.375 12.375 19.567 19.567 0 0 0 -11.314 9.812l-7.689 15.379z" fill="#bc70c4"/><path d="m295.6 284.284 6.693 3.347a36.424 36.424 0 0 1 19.428 25.436 36.433 36.433 0 0 0 9.962 18.614l9.172 9.172-24.66-8.22a19.567 19.567 0 0 1 -12.375-12.375 19.567 19.567 0 0 0 -9.812-11.314l-15.379-7.689z" fill="#bc70c4"/><path d="m216.4 227.716-6.693-3.347a36.424 36.424 0 0 1 -19.428-25.436 36.433 36.433 0 0 0 -9.962-18.614l-9.172-9.172 24.66 8.22a19.567 19.567 0 0 1 12.375 12.375 19.567 19.567 0 0 0 9.812 11.314l15.379 7.689z" fill="#bc70c4"/><path d="m208 264-7.1 2.366a36.424 36.424 0 0 1 -31.724-4.248 36.43 36.43 0 0 0 -20.205-6.118h-12.971l23.249-11.625a19.571 19.571 0 0 1 17.5 0 19.566 19.566 0 0 0 14.938 1.062l16.313-5.437z" fill="#bc70c4"/><path d="m304 248 7.1-2.366a36.424 36.424 0 0 1 31.724 4.248 36.43 36.43 0 0 0 20.205 6.118h12.971l-23.249 11.625a19.571 19.571 0 0 1 -17.5 0 19.566 19.566 0 0 0 -14.938-1.062l-16.313 5.437z" fill="#bc70c4"/><circle cx="256" cy="256" fill="#cb84d3" r="56"/><path d="m291.605 80a8 8 0 0 0 13.7 4.746l13.1-13.49a8 8 0 0 0 -3.205-13.168l-15.031-5.011a8 8 0 0 0 -10.49 8.423z" fill="#362684"/><circle cx="389.667" cy="121" fill="#362684" r="16"/><rect fill="#362684" height="32" rx="8" width="32" x="424" y="192"/><ellipse cx="442.5" cy="305.5" fill="#362684" rx="18.195" ry="16"/><ellipse cx="392.333" cy="391" fill="#362684" rx="16" ry="18.195"/><path d="m302.334 423.332a18.354 18.354 0 0 0 -18.334 18.334v11.666a8 8 0 0 0 8 8h20.666a8 8 0 0 0 8-8v-11.666a18.354 18.354 0 0 0 -18.332-18.334zm2.333 22h-4.667v-3.666a2.333 2.333 0 1 1 4.666 0z" fill="#362684"/><path d="m222.5 436a15.667 15.667 0 1 0 -30.379 5.331h-5.287v16h40v-16h-5.288a15.561 15.561 0 0 0 .954-5.331z" fill="#362684"/><path d="m118.667 371.333a18.355 18.355 0 0 0 -18.334 18.334v11.666a8 8 0 0 0 8 8h20.667a8 8 0 0 0 8-8v-11.666a18.355 18.355 0 0 0 -18.333-18.334zm2.333 22h-4.667v-3.666a2.334 2.334 0 1 1 4.667 0z" fill="#362684"/><path d="m58 225.667h20.667a8 8 0 0 0 8-8v-11.667a18.334 18.334 0 0 0 -36.667 0v11.667a8 8 0 0 0 8 8zm8-19.667a2.334 2.334 0 0 1 4.667 0v3.667h-4.667z" fill="#362684"/><path d="m80 280h-16v16h.176l-12.951 17.59 12.884 9.487 14.046-19.077h9.845v-16a8 8 0 0 0 -8-8z" fill="#362684"/><rect fill="#362684" height="24" rx="8" width="40" x="99.333" y="108"/><path d="m190.438 80.441-.186.38a8 8 0 0 0 7.188 11.512h15.893a8 8 0 0 0 7.243-11.4l-.342-.731a16.9 16.9 0 0 1 .12-14.685l.166-.339a8 8 0 0 0 -7.187-11.516h-15.893a8 8 0 0 0 -7.13 11.627 17.071 17.071 0 0 1 .128 15.152z" fill="#362684"/><path d="m240 272h32v16h-32z" fill="#9d52a5"/><path d="m256 264h-16v-19.948a7.685 7.685 0 0 0 -6.541.163l-5.881 2.94-7.156-14.31 5.878-2.945a23.669 23.669 0 0 1 27.354 4.439 8 8 0 0 1 2.346 5.661z" fill="#9d52a5"/><path d="m272 232h16v16h-16z" fill="#9d52a5"/></g></svg>