<svg height="512" viewBox="0 0 512 512" width="512" xmlns="http://www.w3.org/2000/svg"><g id="Flat"><circle cx="256" cy="256" fill="#5f4bbc" r="232"/><circle cx="256" cy="256" fill="#46349e" r="192"/><path d="m232 224v8h-64v-8a93.7 93.7 0 0 0 -69.57-90.55 67.938 67.938 0 0 1 -50.43-65.64 47.849 47.849 0 0 0 -3.64-18.31 47.841 47.841 0 0 0 -10.37-15.51l-9.99-9.99 34.45 9.84a29.734 29.734 0 0 1 21.55 28.58 28.434 28.434 0 0 0 23.79 28.04c.55.09 1.1.16 1.65.22l7.22.76q6.03.63 11.89 1.8a131.25 131.25 0 0 1 16.05 4.2 133.4 133.4 0 0 1 68.86 52.4 130.161 130.161 0 0 1 8.62 14.83 132.812 132.812 0 0 1 7.8 19.33 131.152 131.152 0 0 1 3.95 16 132.992 132.992 0 0 1 2.17 24z" fill="#c378cb"/><path d="m488 24-9.99 9.99a47.783 47.783 0 0 0 -14.01 33.82 67.938 67.938 0 0 1 -50.43 65.64 93.7 93.7 0 0 0 -69.57 90.55v8h-64v-8a132.992 132.992 0 0 1 2.17-24 131.152 131.152 0 0 1 3.95-16 132.556 132.556 0 0 1 7.98-19.69 133.736 133.736 0 0 1 22.27-31.8 132.939 132.939 0 0 1 39.03-28.59 132.256 132.256 0 0 1 32.05-10.68q5.85-1.17 11.89-1.8l7.22-.76c.55-.06 1.1-.13 1.65-.22a28.434 28.434 0 0 0 23.79-28.04 29.734 29.734 0 0 1 21.55-28.58z" fill="#c378cb"/><g fill="#b76bbf"><path d="m229.83 200h-42.83v-16h38.88a131.152 131.152 0 0 1 3.95 16z"/><path d="m218.08 164.67-39.33 6.23-2.5-15.8 33.21-5.26a130.161 130.161 0 0 1 8.62 14.83z"/><path d="m195.8 132.68-36.84 11.93-4.92-15.22 28.32-9.17a133.183 133.183 0 0 1 13.44 12.46z"/><path d="m156.17 103.71-16 19.38-12.34-10.18 12.77-15.47a132.839 132.839 0 0 1 15.57 6.27z"/><path d="m124.55 93.24-21.18 19.19-10.74-11.86 11.16-10.11c.55.09 1.1.16 1.65.22l7.22.76q6.03.63 11.89 1.8z"/><path d="m325 184v16h-42.83a131.152 131.152 0 0 1 3.95-16z"/><path d="m335.83 155.11-2.66 15.78-39.07-6.58a131.013 131.013 0 0 1 8.64-14.77z"/><path d="m358.01 129.4-5.02 15.2-36.62-12.09a132.685 132.685 0 0 1 13.43-12.42z"/><path d="m384.07 112.79-12.14 10.42-16.53-19.29a130.068 130.068 0 0 1 15.63-6.35z"/><path d="m419.37 100.57-10.74 11.86-21.18-19.19q5.85-1.17 11.89-1.8l7.22-.76c.55-.06 1.1-.13 1.65-.22z"/></g><path d="m304.422 106.131c-5.1 11.084-10.374 13.908-21.594 21.022-10.021 6.353-22.061 9.814-34.04 8.61-17.057-1.714-33.106-12.388-38.337-28.682-6.415-19.979-.229-45.332 18.482-55.24 27.11-14.355 34.89-27.841 34.89-27.841s1.218 22.866-5.243 30.763c-5.408 6.61-13.417 18.614.4 24.63 9.724 4.232 14.812-5.592 17.957-12.931 3.946-9.207 6.084-22.149 17.032-25.774 8.529-2.825 18.045-.927 26.811-2.954 0 0 11.3-2.49 14.812-13.734a40.32 40.32 0 0 1 -1.948 19.182c-4.2 11.5-18.994 11.723-23.476 23.21-2.627 6.733-.7 14.348-1.241 21.353a53.734 53.734 0 0 1 -4.505 18.386z" fill="#c04a42"/><path d="m344 232 96 55.735s-16 30.789-56 23-40-38.928-40-38.928z" fill="#b267ba"/><path d="m168 232-96 55.735s16 30.789 56 23 40-38.928 40-38.928z" fill="#b267ba"/><path d="m168 232v120.62a32 32 0 0 0 12.01 24.988l21.99 17.592a16 16 0 0 1 6 12.494v32.306a48 48 0 0 0 48 48 48 48 0 0 0 48-48v-32.31a16 16 0 0 1 6-12.494l21.985-17.588a32 32 0 0 0 12.015-24.988v-120.62z" fill="#b267ba"/><path d="m224 331.371a30.084 30.084 0 0 1 -6.112 12.158c-9.521 11.3-24.959 11.3-34.479 0-9.341-11.078-7.234-16.03-7.144-39.529z" fill="#c04a42"/><path d="m328.591 343.529c-9.52 11.3-24.958 11.3-34.479 0a30.084 30.084 0 0 1 -6.112-12.158l47.735-27.371c.09 23.5 2.197 28.451-7.144 39.529z" fill="#c04a42"/><path d="m296 152v-32c-13.255 0-24 17.889-24 17.889a28.944 28.944 0 0 0 -16-25.889 28.944 28.944 0 0 0 -16 25.889s-10.745-17.889-24-17.889v32l16 24v56h48v-56z" fill="#9d52a5"/><path d="m256 320a8 8 0 0 1 -6.946-4.031l-11.41-19.969h-21.644a8 8 0 0 1 -3.249-15.311l12.874-5.721-8.571-15a8 8 0 0 1 10.195-11.28l28.751 12.78 28.751-12.779a8 8 0 0 1 10.2 11.28l-8.571 15 12.874 5.721a8 8 0 0 1 -3.254 15.31h-21.644l-11.41 19.969a8 8 0 0 1 -6.946 4.031z" fill="#9d52a5"/><path d="m196 282.817h16v82.365h-16z" fill="#9d52a5" transform="matrix(.486 -.874 .874 .486 -178.298 344.982)"/><path d="m266.817 316h82.365v16h-82.365z" fill="#9d52a5" transform="matrix(.874 -.486 .486 .874 -118.602 190.394)"/><path d="m256 424h-16a8.009 8.009 0 0 0 -8-8v-16a24.027 24.027 0 0 1 24 24z" fill="#9d52a5"/><path d="m272 424h-16a24.027 24.027 0 0 1 24-24v16a8.009 8.009 0 0 0 -8 8z" fill="#9d52a5"/><path d="m207.716 348h56.569v16.001h-56.569z" fill="#9d52a5" transform="matrix(.141 -.99 .99 .141 -149.796 539.285)"/><path d="m268 327.716h16.001v56.569h-16.001z" fill="#9d52a5" transform="matrix(.99 -.141 .141 .99 -47.572 42.61)"/><path d="m208 440h96v16h-96z" fill="#9d52a5"/><path d="m112 192h16v16h-16z" fill="#3c2a8f"/><path d="m384 192h16v16h-16z" fill="#3c2a8f"/><path d="m120 344h16v16h-16z" fill="#3c2a8f"/><path d="m376 336h16v16h-16z" fill="#3c2a8f"/><path d="m64 256c0 2.68.05 5.35.17 8h-40.03c-.09-2.66-.14-5.32-.14-8s.05-5.34.14-8h40.03c-.12 2.65-.17 5.32-.17 8z" fill="#4c3aa3"/><path d="m488 256c0 2.68-.05 5.34-.14 8h-40.03c.12-2.65.17-5.32.17-8s-.05-5.35-.17-8h40.03c.09 2.66.14 5.32.14 8z" fill="#4c3aa3"/><path d="m378.87 452.82q-6.765 4.245-13.85 8.01l-20.02-34.67q7.11-3.705 13.85-8.01z" fill="#4c3aa3"/><path d="m167 85.84q-7.11 3.7-13.85 8.01l-20.02-34.67q6.765-4.245 13.85-8.01z" fill="#4c3aa3"/><path d="m378.87 59.18-20.02 34.67q-6.735-4.29-13.85-8.01l20.02-34.67q7.08 3.765 13.85 8.01z" fill="#4c3aa3"/><path d="m167 426.16-20.02 34.67q-7.08-3.765-13.85-8.01l20.02-34.67q6.735 4.29 13.85 8.01z" fill="#4c3aa3"/></g></svg>