<svg height="512" viewBox="0 0 512 512" width="512" xmlns="http://www.w3.org/2000/svg"><g id="Flat"><path d="m440 144-48-24 96-96-216 88 64 32-264 224 48 24-96 96 216-88-64-32z" fill="#ffba40"/><path d="m360 280a33.941 33.941 0 0 0 0-48l-32-32-128 128 32 32a33.941 33.941 0 0 0 48 0l96 128h112v-112z" fill="#a45bad"/><path d="m336 208-48-48a22.627 22.627 0 0 0 -32 0 22.518 22.518 0 0 0 -6.323 12.292 16.133 16.133 0 0 1 -13.385 13.385 22.518 22.518 0 0 0 -12.292 6.323 22.518 22.518 0 0 0 -6.323 12.292 16.133 16.133 0 0 1 -13.385 13.385 22.518 22.518 0 0 0 -12.292 6.323 22.518 22.518 0 0 0 -6.323 12.292 16.133 16.133 0 0 1 -13.385 13.385 22.518 22.518 0 0 0 -12.292 6.323 22.628 22.628 0 0 0 0 32l48 48a22.627 22.627 0 0 0 32 0 22.628 22.628 0 0 0 0-32 22.627 22.627 0 0 0 32 0 22.628 22.628 0 0 0 0-32 22.627 22.627 0 0 0 32 0 22.628 22.628 0 0 0 0-32 22.627 22.627 0 0 0 32 0 22.628 22.628 0 0 0 0-32z" fill="#c378cb"/><rect fill="#a961b2" height="49.941" rx="8" transform="matrix(.707 -.707 .707 .707 -74.725 270.912)" width="16" x="281.657" y="200.686"/><rect fill="#a961b2" height="49.941" rx="8" transform="matrix(.707 -.707 .707 .707 -106.725 257.641)" width="16" x="249.657" y="232.686"/><rect fill="#a961b2" height="49.941" rx="8" transform="matrix(.707 -.707 .707 .707 -138.725 244.402)" width="16" x="217.657" y="264.686"/><path d="m337.373 238.627-34.746 34.746a22.627 22.627 0 0 0 -6.627 16 22.628 22.628 0 0 0 22.627 22.627 22.627 22.627 0 0 0 16-6.627l34.746-34.746a22.627 22.627 0 0 0 6.627-16 22.628 22.628 0 0 0 -22.627-22.627 22.627 22.627 0 0 0 -16 6.627z" fill="#c378cb"/><rect fill="#954b9e" height="16" rx="8" transform="matrix(.707 -.707 .707 .707 -160.55 308.422)" width="33.941" x="275.029" y="340"/><path d="m401.765 436.825-54.59-75.061a8 8 0 0 0 -12.94 9.411l54.59 75.06a8 8 0 0 0 12.94-9.41z" fill="#954b9e"/><g fill="#fedf7c"><path d="m383.06 206.563h55.172v16h-55.172z" transform="matrix(.966 -.259 .259 .966 -41.537 113.579)"/><path d="m460.712 189.428h27.761v16h-27.761z" transform="matrix(.966 -.259 .259 .966 -34.925 129.544)"/><path d="m303.22 435.256h16v53.658h-16z" transform="matrix(.966 -.259 .259 .966 -108.991 96.294)"/><path d="m100.833 171.878h16v89.378h-16z" transform="matrix(.259 -.966 .966 .259 -128.522 265.64)"/><path d="m27.769 184.805h16v24.369h-16z" transform="matrix(.259 -.966 .966 .259 -163.766 180.557)"/><path d="m448 276.461h16v66.258h-16z" transform="matrix(.259 -.966 .966 .259 38.939 669.926)"/><path d="m286.887 40h49.693v16h-49.693z" transform="matrix(.259 -.966 .966 .259 184.696 336.692)"/><path d="m174.794 455.184h51.382v16h-51.382z" transform="matrix(.259 -.966 .966 .259 -298.808 536.945)"/><path d="m171.125 160.917h16v36.416h-16z" transform="matrix(.707 -.707 .707 .707 -74.196 179.125)"/><path d="m116.625 86.264h16v76.721h-16z" transform="matrix(.707 -.707 .707 .707 -51.621 124.625)"/><path d="m65.75 59.962h16v27.577h-16z" transform="matrix(.671 -.741 .741 .671 -30.421 78.892)"/><path d="m69.178 291.435h49.442v16h-49.442z" transform="matrix(.966 -.259 .259 .966 -74.291 34.5)"/><path d="m23.587 307.027h24.243v16h-24.243z" transform="matrix(.966 -.259 .259 .966 -80.308 19.972)"/><path d="m209.415 70.589h16v82.822h-16z" transform="matrix(.966 -.259 .259 .966 -21.579 60.086)"/><path d="m190.123 23.436h16v33.129h-16z" transform="matrix(.966 -.259 .259 .966 -3.602 52.64)"/></g></g></svg>