<svg height="512" viewBox="0 0 512 512" width="512" xmlns="http://www.w3.org/2000/svg"><g id="Flat"><path d="m487.84 208a190.619 190.619 0 0 0 -21.61-81.05q-3.72-7.11-8-13.85a192.822 192.822 0 0 0 -59.33-59.33q-6.735-4.275-13.85-8a190.619 190.619 0 0 0 -81.05-21.61q-3.87-.16-7.77-.16-4.14 0-8.23.18a190.526 190.526 0 0 0 -80.94 21.77q-7.11 3.735-13.84 8.04a192.777 192.777 0 0 0 -59.11 59.3q-4.275 6.75-7.99 13.87a190.539 190.539 0 0 0 -21.5 80.84q-.165 3.87-.16 7.77 0 4.14.18 8.23a190.494 190.494 0 0 0 21.67 80.73v.01q3.72 7.11 8.01 13.84v.01a192.8 192.8 0 0 0 59.09 59.09h.01q6.735 4.29 13.84 8.01h.01a190.494 190.494 0 0 0 80.73 21.67q4.1.18 8.23.18 3.9 0 7.77-.16a190.539 190.539 0 0 0 80.84-21.5q7.125-3.7 13.87-7.99a192.777 192.777 0 0 0 59.3-59.11q4.305-6.735 8.04-13.84a190.526 190.526 0 0 0 21.77-80.94q.18-4.095.18-8.23 0-3.9-.16-7.77zm-271.84 8a80 80 0 1 1 80 80 80 80 0 0 1 -80-80z" fill="#5f4bbc"/><path d="m325.242 76.176a8 8 0 0 0 13.695 4.745l10.25-10.551a8 8 0 0 0 -3.209-13.163l-11.757-3.919a8 8 0 0 0 -10.487 8.418z" fill="#362684"/><path d="m403.673 122.324a14.257 14.257 0 1 0 -14.256-14.257 14.274 14.274 0 0 0 14.256 14.257z" fill="#362684"/><rect fill="#362684" height="28.514" rx="8" width="28.514" x="428.785" y="161.856"/><path d="m445 238.116c-8.808 0-15.974 6.4-15.974 14.257s7.163 14.257 15.974 14.257 15.974-6.4 15.974-14.257-7.169-14.257-15.974-14.257z" fill="#362684"/><path d="m405.759 303.273c-7.861 0-14.257 7.166-14.257 15.974s6.4 15.974 14.257 15.974 14.258-7.166 14.258-15.974-6.396-15.974-14.258-15.974z" fill="#362684"/><path d="m335.366 342.792a16.1 16.1 0 0 0 -16.082 16.083v9.125a8 8 0 0 0 8 8h16.165a8 8 0 0 0 8-8v-9.125a16.1 16.1 0 0 0 -16.083-16.083z" fill="#362684"/><path d="m274.668 354.444a14 14 0 1 0 -27.768 2.426h-1.872v16h31.286v-16h-1.871a13.959 13.959 0 0 0 .225-2.426z" fill="#362684"/><path d="m191.711 302.122a16.1 16.1 0 0 0 -16.082 16.078v9.125a8 8 0 0 0 8 8h16.164a8 8 0 0 0 8-8v-9.125a16.1 16.1 0 0 0 -16.082-16.078z" fill="#362684"/><path d="m144.261 191.674h16.164a8 8 0 0 0 8-8v-9.125a16.082 16.082 0 0 0 -32.164 0v9.125a8 8 0 0 0 8 8z" fill="#362684"/><path d="m161.468 230.686h-12.514v11.5l-11.4 15.478 12.884 9.487 11.75-15.951h7.28v-12.514a8 8 0 0 0 -8-8z" fill="#362684"/><rect fill="#362684" height="22.257" rx="8" width="34.771" x="174.847" y="96.156"/><path d="m246.281 75.579-.145.3a8 8 0 0 0 7.188 11.511h12.43a8 8 0 0 0 7.246-11.403l-.267-.568a11.49 11.49 0 0 1 .083-9.981l.129-.265a8 8 0 0 0 -7.187-11.514h-12.43a8 8 0 0 0 -7.13 11.627 11.6 11.6 0 0 1 .083 10.293z" fill="#362684"/><g fill="#4c3aa3"><path d="m191.23 224h-86.59q-.18-4.095-.18-8.23 0-3.9.16-7.77h86.58q-.285 3.855-.29 7.77 0 4.155.32 8.23z"/><path d="m488 215.77q0 4.14-.18 8.23h-86.59q.315-4.08.32-8.23 0-3.915-.29-7.77h86.58q.165 3.87.16 7.77z"/><path d="m209.36 275.26-13.89 8.02-61.15 35.3q-4.29-6.735-8.01-13.84v-.01l61.13-35.29v-.01l13.89-8.01a105.644 105.644 0 0 0 8.03 13.84z"/><path d="m466.23 126.95-61.14 35.31-13.88 8.01a105.7 105.7 0 0 0 -8.02-13.85l13.88-8.01 61.16-35.31q4.275 6.735 8 13.85z"/><path d="m250.58 310.67-8.01 13.89h-.01l-35.29 61.13h-.01q-7.11-3.72-13.84-8.01l35.3-61.15 8.02-13.89a105.644 105.644 0 0 0 13.84 8.03z"/><path d="m398.9 53.77-35.31 61.16-8.01 13.88a105.7 105.7 0 0 0 -13.85-8.02l8.01-13.88 35.31-61.14q7.11 3.72 13.85 8z"/><path d="m304 320.8v86.58q-3.87.165-7.77.16-4.14 0-8.23-.18v-86.59q4.08.315 8.23.32 3.915 0 7.77-.29z"/><path d="m304 24.16v86.58q-3.855-.285-7.77-.29-4.155 0-8.23.32v-86.59q4.1-.18 8.23-.18 3.9 0 7.77.16z"/><path d="m398.71 377.89q-6.75 4.275-13.87 7.99l-35.3-61.15-8.02-13.89a104.559 104.559 0 0 0 13.87-7.98l8.01 13.88z"/><path d="m250.37 120.97a104.555 104.555 0 0 0 -13.82 8.07l-8.02-13.9-35.31-61.15q6.735-4.305 13.84-8.04l35.3 61.14z"/><path d="m466.05 304.94q-3.735 7.11-8.04 13.84l-61.15-35.31-13.9-8.02a104.555 104.555 0 0 0 8.07-13.82l13.88 8.01z"/><path d="m209.14 156.61a104.559 104.559 0 0 0 -7.98 13.87l-13.89-8.02-61.15-35.3q3.7-7.125 7.99-13.87l61.15 35.31z"/><path d="m417.3 208a120.573 120.573 0 0 0 -20.23-59.59 121.8 121.8 0 0 0 -33.48-33.48 120.573 120.573 0 0 0 -59.59-20.23q-3.855-.255-7.77-.25-4.155 0-8.23.28a121.077 121.077 0 0 0 -59.47 20.41 122.068 122.068 0 0 0 -33.27 33.46 120.586 120.586 0 0 0 -20.1 59.4q-.255 3.855-.25 7.77 0 4.155.28 8.23a120.267 120.267 0 0 0 12.25 45.43v.01a119.544 119.544 0 0 0 8.03 13.84 122.342 122.342 0 0 0 33.25 33.25 119.544 119.544 0 0 0 13.84 8.03h.01a120.267 120.267 0 0 0 45.43 12.25q4.08.285 8.23.28 3.915 0 7.77-.25a120.586 120.586 0 0 0 59.4-20.1 122.068 122.068 0 0 0 33.46-33.27 121.077 121.077 0 0 0 20.41-59.47q.285-4.08.28-8.23 0-3.915-.25-7.77zm-26.27 53.63a104.555 104.555 0 0 1 -8.07 13.82 105.985 105.985 0 0 1 -27.57 27.41 104.833 104.833 0 0 1 -51.39 17.94q-3.855.285-7.77.29-4.155 0-8.23-.32a104.341 104.341 0 0 1 -37.42-10.1 105.823 105.823 0 0 1 -49.25-49.25 104.341 104.341 0 0 1 -10.1-37.42q-.315-4.08-.32-8.23 0-3.915.29-7.77a104.833 104.833 0 0 1 17.94-51.39 105.985 105.985 0 0 1 27.41-27.57 104.684 104.684 0 0 1 51.45-18.27q4.08-.315 8.23-.32 3.915 0 7.77.29a104.577 104.577 0 0 1 37.73 10.05 106.116 106.116 0 0 1 49.48 49.48 104.577 104.577 0 0 1 10.05 37.73q.285 3.855.29 7.77 0 4.155-.32 8.23a104.566 104.566 0 0 1 -10.2 37.63z"/></g><circle cx="176" cy="336" fill="#b267ba" r="152"/><path d="m176 416a80 80 0 1 1 80-80 80.091 80.091 0 0 1 -80 80zm0-144a64 64 0 1 0 64 64 64.072 64.072 0 0 0 -64-64z" fill="#9d52a5"/><path d="m176 208a128 128 0 1 0 128 128 128.144 128.144 0 0 0 -128-128zm77.9 208.39-10.064-11.99-12.257 10.284 10.07 12a112.11 112.11 0 0 1 -19.925 11.55l-5.372-14.76-15.036 5.473 5.379 14.777a111.4 111.4 0 0 1 -22.695 3.987v-15.711h-16v15.711a111.4 111.4 0 0 1 -22.695-3.987l5.379-14.777-15.036-5.473-5.372 14.76a112.481 112.481 0 0 1 -62.91-74.955l15.482-2.73-2.779-15.757-15.48 2.729a112.971 112.971 0 0 1 0-23.042l15.48 2.729 2.779-15.757-15.482-2.73a111.146 111.146 0 0 1 7.9-21.643l13.6 7.85 8-13.856-13.575-7.838a112.848 112.848 0 0 1 14.809-17.624l10.064 11.99 12.257-10.284-10.07-12a112.11 112.11 0 0 1 19.925-11.55l5.372 14.76 15.036-5.473-5.379-14.777a111.4 111.4 0 0 1 22.695-3.987v15.711h16v-15.711a111.4 111.4 0 0 1 22.695 3.987l-5.379 14.777 15.036 5.473 5.372-14.76a112.11 112.11 0 0 1 19.925 11.55l-10.07 12 12.257 10.284 10.064-11.99a112.848 112.848 0 0 1 14.816 17.624l-13.575 7.838 8 13.856 13.6-7.85a111.146 111.146 0 0 1 7.9 21.643l-15.482 2.73 2.779 15.757 15.48-2.729a112.971 112.971 0 0 1 0 23.042l-15.48-2.729-2.779 15.757 15.482 2.73a111.146 111.146 0 0 1 -7.9 21.643l-13.6-7.85-8 13.856 13.575 7.838a112.848 112.848 0 0 1 -14.816 17.624z" fill="#9d52a5"/><path d="m208 336a32 32 0 0 1 -64 0q0-32 2.13-63.93l4.27-64.12a25.614 25.614 0 0 1 17.6-22.66 25.7 25.7 0 0 1 25.53 5.63 25.58 25.58 0 0 1 8.07 17.03l4.27 64.12q2.13 31.92 2.13 63.93z" fill="#bd5857"/><path d="m184 185.29v94.71h-16v-94.71a25.451 25.451 0 0 1 16 0z" fill="#b34f4f"/><path d="m198.63 358.63q-22.62 22.62-46.71 43.7l-48.37 42.32a25.655 25.655 0 0 1 -36.2-36.2l42.32-48.37q21.075-24.075 43.7-46.71a32 32 0 0 1 45.26 45.26z" fill="#c04a42"/><path d="m142.06 381.25-66.97 66.98a25.536 25.536 0 0 1 -11.32-11.32l66.98-66.97z" fill="#b44037"/><circle cx="176" cy="336" fill="#af3b34" r="32"/><path d="m168 328h16v16h-16z" fill="#932b22"/></g></svg>