<svg height="512" viewBox="0 0 512 512" width="512" xmlns="http://www.w3.org/2000/svg"><g id="Flat"><path d="m232 192h16v40h-16z" fill="#5540b0"/><path d="m264 192h16v40h-16z" fill="#5540b0"/><path d="m485.355 352.525a16.7 16.7 0 0 0 -3.264-21.77l-24.512-23.4a15.412 15.412 0 0 0 -22.934 3.687 16.7 16.7 0 0 0 3.264 21.771l24.512 23.395a15.412 15.412 0 0 0 22.934-3.683z" fill="#5540b0"/><path d="m392 327.786h35.508a16 16 0 0 0 15.522-12.12 16 16 0 0 0 -15.522-19.88h-67.508a32 32 0 0 0 32 32z" fill="#5f4bbc"/><path d="m464 439.786c16.169-2.837 24-13.948 24-25.6v-62.4c-14.728 0-32 8-32 24v48l-8 16s13.25.482 16 0z" fill="#5f4bbc"/><path d="m421.355 384.525a16.7 16.7 0 0 0 -3.264-21.77l-24.512-23.4a15.412 15.412 0 0 0 -22.934 3.687 16.7 16.7 0 0 0 3.264 21.771l24.512 23.395a15.412 15.412 0 0 0 22.934-3.683z" fill="#5540b0"/><path d="m328 359.786h35.508a16 16 0 0 0 15.522-12.12 16 16 0 0 0 -15.522-19.88h-67.508a32 32 0 0 0 32 32z" fill="#5f4bbc"/><path d="m400 471.786c16.169-2.837 24-13.948 24-25.6v-62.4c-14.728 0-32 8-32 24v48l-8 16s13.25.482 16 0z" fill="#5f4bbc"/><path d="m320 376h40a0 0 0 0 1 0 0v64a0 0 0 0 1 0 0 40 40 0 0 1 -40-40v-24a0 0 0 0 1 0 0z" fill="#5f4bbc" transform="matrix(-1 0 0 -1 680 816)"/><path d="m304 408h16v-32h-48a32 32 0 0 0 32 32z" fill="#5540b0"/><path d="m324 440h12a24 24 0 0 1 24 24 24 24 0 0 1 -24 24h-56a0 0 0 0 1 0 0v-4a44 44 0 0 1 44-44z" fill="#705dc9" transform="matrix(-1 0 0 -1 640 928)"/><path d="m26.645 352.525a16.7 16.7 0 0 1 3.264-21.77l24.512-23.4a15.412 15.412 0 0 1 22.934 3.687 16.7 16.7 0 0 1 -3.264 21.771l-24.512 23.399a15.412 15.412 0 0 1 -22.934-3.687z" fill="#5540b0"/><path d="m120 327.786h-35.508a16 16 0 0 1 -15.522-12.12 16 16 0 0 1 15.522-19.88h67.508a32 32 0 0 1 -32 32z" fill="#5f4bbc"/><path d="m48 439.786c-16.169-2.837-24-13.948-24-25.6v-62.4c14.728 0 32 8 32 24v48l8 16s-13.25.482-16 0z" fill="#5f4bbc"/><path d="m26.645 215.26a16.7 16.7 0 0 0 3.264 21.771l24.512 23.4a15.413 15.413 0 0 0 22.934-3.687 16.7 16.7 0 0 0 -3.264-21.771l-24.512-23.4a15.413 15.413 0 0 0 -22.934 3.687z" fill="#5540b0"/><path d="m120 240h-35.508a16 16 0 0 0 -15.522 12.119 16 16 0 0 0 15.522 19.881h67.508a32 32 0 0 0 -32-32z" fill="#5f4bbc"/><path d="m48 128c-16.169 2.836-24 13.948-24 25.6v62.4c14.728 0 32-8 32-24v-48l8-16s-13.25-.482-16 0z" fill="#5f4bbc"/><path d="m485.355 215.26a16.7 16.7 0 0 1 -3.264 21.771l-24.512 23.4a15.413 15.413 0 0 1 -22.934-3.687 16.7 16.7 0 0 1 3.264-21.771l24.512-23.4a15.413 15.413 0 0 1 22.934 3.687z" fill="#5540b0"/><path d="m392 240h35.508a16 16 0 0 1 15.522 12.119 16 16 0 0 1 -15.522 19.881h-67.508a32 32 0 0 1 32-32z" fill="#5f4bbc"/><path d="m464 128c16.169 2.836 24 13.948 24 25.6v62.4c-14.728 0-32-8-32-24v-48l-8-16s13.25-.482 16 0z" fill="#5f4bbc"/><path d="m90.645 384.525a16.7 16.7 0 0 1 3.264-21.77l24.512-23.4a15.412 15.412 0 0 1 22.934 3.687 16.7 16.7 0 0 1 -3.264 21.771l-24.512 23.395a15.412 15.412 0 0 1 -22.934-3.683z" fill="#5540b0"/><path d="m184 359.786h-35.508a16 16 0 0 1 -15.522-12.12 16 16 0 0 1 15.522-19.88h67.508a32 32 0 0 1 -32 32z" fill="#5f4bbc"/><path d="m112 471.786c-16.169-2.837-24-13.948-24-25.6v-62.4c14.728 0 32 8 32 24v48l8 16s-13.25.482-16 0z" fill="#5f4bbc"/><path d="m145.597 160h16v40h-16z" fill="#5540b0"/><path d="m169.597 176h16v48h-16z" fill="#5540b0"/><path d="m89.597 88h16v32h-16z" fill="#5540b0"/><path d="m113.597 64h16v40h-16z" fill="#5540b0"/><path d="m145.6 240-56-56 32-32 88 88a45.255 45.255 0 0 1 -64 0z" fill="#5f4bbc"/><path d="m225.055 55.439-103.455 96.561-32-32 48-48h32l56-48a21.861 21.861 0 0 1 -.545 31.439z" fill="#5f4bbc"/><path d="m137.6 72 31.7-27.175a86.507 86.507 0 0 1 56.3-20.825l-56 48z" fill="#5540b0"/><path d="m89.6 120a45.255 45.255 0 0 0 0 64l32-32z" fill="#705dc9"/><path d="m427.73 139.093-3.698-42.38 15.936-1.426 3.699 42.38z" fill="#5540b0"/><path d="m395.251 76.89h16v36.408h-16z" fill="#5540b0" transform="matrix(.929 -.371 .371 .929 -6.516 156.291)"/><path d="m363.605 63.839h16v35.358h-16z" fill="#5540b0" transform="matrix(.932 -.362 .362 .932 -4.325 139.929)"/><path d="m360 149.256h16v34.744h-16z" fill="#5540b0"/><path d="m336 165.256h16v45.488h-16z" fill="#5540b0"/><path d="m376 229.256 56-56-32.333-27.256-87.667 83.256a45.255 45.255 0 0 0 64 0z" fill="#5f4bbc"/><path d="m266.189 96.205 133.478 49.795 16.333-39.489-64-32-24 16-74.193-23.211a21.861 21.861 0 0 0 12.382 28.905z" fill="#5f4bbc"/><path d="m352 74.511-31-37.5c-6.564-7.326-13.66-13.3-23.5-13-16.5.5-23.5 4.5-31 11l17.944-.5 43.556 56z" fill="#5540b0"/><path d="m416 106.511s56 24 16 66.745l-32.333-27.256z" fill="#705dc9"/><path d="m192 376a0 0 0 0 1 0 0v64a0 0 0 0 1 0 0h-40a0 0 0 0 1 0 0v-24a40 40 0 0 1 40-40z" fill="#5f4bbc"/><path d="m208 408h-16v-32h48a32 32 0 0 1 -32 32z" fill="#5540b0"/><path d="m152 440h56a24 24 0 0 1 24 24 24 24 0 0 1 -24 24h-12a44 44 0 0 1 -44-44v-4a0 0 0 0 1 0 0z" fill="#705dc9"/><path d="m208 168a15.986 15.986 0 0 0 -8 29.835v34.165h16v-34.165a15.986 15.986 0 0 0 -8-29.835z" fill="#b75554"/><path d="m320 184a16 16 0 1 0 -24 13.835v34.165h16v-34.165a16 16 0 0 0 8-13.835z" fill="#b75554"/><path d="m337.213 359.876 22.787-39.876 72-24-56-24a111.142 111.142 0 0 0 -96.5-56h-47a111.142 111.142 0 0 0 -96.5 56l-56 24 72 24 22.787 39.876a32 32 0 0 0 27.783 16.124h106.86a32 32 0 0 0 27.783-16.124z" fill="#c04a42"/><path d="m305.14 356.116-7.536-12.56a48.518 48.518 0 0 0 -83.208 0l-7.536 12.56-13.72-8.232 7.536-12.56a64.518 64.518 0 0 1 110.648 0l7.536 12.56z" fill="#b44037"/><path d="m248 240h16v112h-16z" fill="#af3b34"/><g fill="#cd5c53"><path d="m176 256h16v16h-16z"/><path d="m216 256h16v16h-16z"/><path d="m192 288h16v16h-16z"/><path d="m320 256h16v16h-16z"/><path d="m280 256h16v16h-16z"/><path d="m304 288h16v16h-16z"/></g></g></svg>