<svg height="512" viewBox="0 0 512 512" width="512" xmlns="http://www.w3.org/2000/svg"><g id="Flat"><path d="m272 24h-136a72 72 0 0 0 -72 72h48a40 40 0 0 1 40-40h88a32 32 0 0 0 32-32z" fill="#a961b2"/><path d="m304 24a32 32 0 0 1 -32 32h-88a40.015 40.015 0 0 0 -40 40h-48a71.946 71.946 0 0 1 72-72z" fill="#c378cb"/><path d="m131.61 56.86-7.22 14.28-19.48-9.85a72.1 72.1 0 0 1 9.35-13.2z" fill="#b76bbf"/><path d="m151.05 44.22-14.1 7.56-8.55-15.92a71.967 71.967 0 0 1 14.26-7.27z" fill="#b76bbf"/><path d="m168 24h16v16h-16z" fill="#b76bbf"/><path d="m200 24h16v16h-16z" fill="#b76bbf"/><path d="m232 24h16v16h-16z" fill="#b76bbf"/><path d="m264 24h16v16h-16z" fill="#b76bbf"/><path d="m168 336v-48h-112a32 32 0 0 0 -32 32v68a60 60 0 0 0 60 60h20v-48h-32v-64z" fill="#46349e"/><path d="m360 280 24-40h-18.334a33.167 33.167 0 0 1 -29.666-48h-9.983a33.167 33.167 0 0 1 -31.465-43.656l1.448-4.344h-9.983a33.167 33.167 0 0 1 -31.465-43.656l1.448-4.344h-72v184z" fill="#c378cb"/><path d="m368 264-54.428-27.214a122.249 122.249 0 0 1 -58.834-63.94 122.247 122.247 0 0 0 -113.503-76.846h-77.235v72l33.142 59.655a24 24 0 0 0 20.98 12.345h25.878v82.745a32 32 0 0 0 9.373 22.628l47.6 47.6a24 24 0 0 0 16.968 7.027h150.059z" fill="#5f4bbc"/><path d="m392 168h-29.539c-36.705 0-66.461-32.235-66.461-72h29.539c36.705 0 66.461 32.235 66.461 72z" fill="#c378cb"/><path d="m392 168h29.539c36.705 0 66.461-32.235 66.461-72h-29.539c-36.705 0-66.461 32.235-66.461 72z" fill="#c378cb"/><path d="m200 432-16 16h-56l60.58-36.348a40 40 0 0 0 19.42-34.3v-25.352h-40l-82.278 68.565a38.137 38.137 0 0 0 -13.722 29.298 38.138 38.138 0 0 0 38.137 38.137h73.863a56 56 0 0 0 56-56z" fill="#5f4bbc"/><path d="m56 128h8v-32h-40a32 32 0 0 0 32 32z" fill="#46349e"/><path d="m480 376a112.017 112.017 0 1 1 -169.71-96c1.68-1.02 3.39-1.98 5.13-2.9a122.847 122.847 0 0 0 31.37-23.7 110.271 110.271 0 0 0 11.5-14.21 94.939 94.939 0 0 0 14.72-34.21c.48-2.35 3.79-36.98-1.01-36.98h40c6.41 28.69 10.92 60.27 1.71 88.9a92.545 92.545 0 0 1 -6.04 14.34c.02.01.05.02.07.03a110.466 110.466 0 0 1 14.42 6.69 111.93 111.93 0 0 1 57.84 98.04z" fill="#6754c4"/><path d="m108 152a12 12 0 1 0 12 12 12.01 12.01 0 0 0 -12-12z" fill="#362684"/><g fill="#46349e"><path d="m192 152h16v16h-16z"/><path d="m216 176h16v16h-16z"/><path d="m248 232h16v16h-16z"/><path d="m272 256h16v16h-16z"/><path d="m424 336h16v16h-16z"/><path d="m440 368h16v16h-16z"/><path d="m280 352h16v16h-16z"/><path d="m296 416h16v16h-16z"/><path d="m320 440h16v16h-16z"/><path d="m384 232h16v16h-16z"/><path d="m248 280h16v16h-16z"/></g><path d="m422.16 277.96a8.14 8.14 0 0 1 -.78 1.67c-10.17 16.44-26.4 33.29-38.99 45.59-3.48 3.4-7.27 6.72-10.93 9.93-.35.31-.71.62-1.06.92-.81.72-1.61 1.42-2.4 2.12-10.67 9.44-20.23 18.8-22.57 30.98a8.086 8.086 0 0 1 -7.9 6.58 8.244 8.244 0 0 1 -1.39-.12 8.005 8.005 0 0 1 -6.51-9.28 44.933 44.933 0 0 1 1.5-5.89c-.01-.01.01-.02.01-.02 5.09-15.7 18.02-27.02 29.77-37.32 2.47-2.16 4.84-4.24 7.09-6.31q1.65-1.515 3.21-3.03c11.86-11.59 27.26-27.54 36.53-42.51a110.466 110.466 0 0 1 14.42 6.69z" fill="#5a45b5"/><path d="m136 96v40h16a40 40 0 0 0 40-40z" fill="#5f4bbc"/><path d="m152 144a8 8 0 0 1 -8-8 8 8 0 0 1 8-8 32.054 32.054 0 0 0 31.358-25.6 7.989 7.989 0 0 1 7.829-6.4h.008a7.977 7.977 0 0 1 7.866 9.477 48.083 48.083 0 0 1 -47.061 38.523z" fill="#46349e"/><circle cx="368" cy="376" fill="#5a45b5" r="40"/><path d="m144 168h16v48h-16z" fill="#46349e"/><path d="m144 208v32h1.373a54.626 54.626 0 0 1 38.627 16v-8a40 40 0 0 0 -40-40z" fill="#c378cb"/></g></svg>