<svg height="512" viewBox="0 0 512 512" width="512" xmlns="http://www.w3.org/2000/svg"><g id="Flat"><circle cx="256" cy="256" fill="#5f4bbc" r="232"/><g fill="#f98500"><path d="m248 168h16v32h-16z"/><path d="m248 312h16v32h-16z"/><path d="m168 248h32v16h-32z"/><path d="m312 248h32v16h-32z"/><path d="m197.858 281.456h49.373v16h-49.373z" transform="matrix(.707 -.707 .707 .707 -139.497 242.158)"/><path d="m180.118 315.882h16v16h-16z" transform="matrix(.707 -.707 .707 .707 -173.925 227.898)"/><path d="m264.77 214.544h49.373v16h-49.373z" transform="matrix(.707 -.707 .707 .707 -72.581 269.874)"/><path d="m315.882 180.117h16v16h-16z" transform="matrix(.707 -.707 .707 .707 -38.152 284.133)"/><path d="m281.456 264.769h16v49.373h-16z" transform="matrix(.707 -.707 .707 .707 -119.896 289.459)"/><path d="m315.882 315.882h16v16h-16z" transform="matrix(.707 -.707 .707 .707 -134.156 323.882)"/><path d="m214.544 197.858h16v49.373h-16z" transform="matrix(.707 -.707 .707 .707 -92.181 222.546)"/><path d="m180.117 180.118h16v16h-16z" transform="matrix(.707 -.707 .707 .707 -77.921 188.118)"/></g><circle cx="256" cy="256" fill="#ffba40" r="32"/><path d="m272 96.8v-8.8a8 8 0 0 0 -13.657-5.657l-16 16a8 8 0 0 0 0 11.314l16 16a8 8 0 0 0 13.657-5.657v-7.106c71.9 7.985 128 69.112 128 143.106a143.788 143.788 0 0 1 -7.577 46.223l15.154 5.133a159.731 159.731 0 0 0 8.423-51.356c0-82.825-63.26-151.149-144-159.2z" fill="#4c3aa3"/><path d="m140.87 315.8a8 8 0 0 0 -8.87-.582l-5.746 3.317a144.076 144.076 0 0 1 99.422-203.335l-3.352-15.645a160.066 160.066 0 0 0 -109.95 226.994l-8.087 4.669a8 8 0 0 0 1.93 14.656l21.856 5.857a7.994 7.994 0 0 0 9.8-5.657l5.857-21.857a8 8 0 0 0 -2.86-8.417z" fill="#4c3aa3"/><path d="m397.584 325.929a8 8 0 0 0 -9.8-5.657l-21.856 5.857a8 8 0 0 0 -1.928 14.656l5.867 3.387a144.019 144.019 0 0 1 -219.973 9.181l-11.788 10.82a159.932 159.932 0 0 0 245.719-11.942l7.888 4.554a8 8 0 0 0 11.727-9z" fill="#4c3aa3"/><path d="m256 496a240 240 0 0 1 -169.7-409.706 240 240 0 1 1 339.41 339.412 238.426 238.426 0 0 1 -169.71 70.294zm0-464a224 224 0 0 0 -158.392 382.392 224 224 0 0 0 316.784-316.784 222.535 222.535 0 0 0 -158.392-65.608z" fill="#4c3aa3"/><path d="m112 136a8 8 0 0 1 -2.97-.572l-80-32a8 8 0 0 1 1.03-15.189l58.911-14.728 7.137-42.826a8 8 0 0 1 12.692-5.085l64 48a8 8 0 0 1 .406 12.474l-56 48a8 8 0 0 1 -5.206 1.926zm-54.058-38.239 52.531 21.012 44.749-38.357-45.494-34.116-5.836 35.019a8 8 0 0 1 -5.952 6.446z" fill="#c378cb"/><path d="m104 48a16 16 0 1 1 16-16 16.019 16.019 0 0 1 -16 16z" fill="#ffba40"/><path d="m168 96a16 16 0 1 1 16-16 16.019 16.019 0 0 1 -16 16z" fill="#ffba40"/><path d="m32 112a16 16 0 1 1 16-16 16.019 16.019 0 0 1 -16 16z" fill="#ffba40"/><path d="m96 96a16 16 0 1 1 16-16 16.019 16.019 0 0 1 -16 16z" fill="#ffba40"/><path d="m112 144a16 16 0 1 1 16-16 16.019 16.019 0 0 1 -16 16z" fill="#ffba40"/><path d="m416 120h-40a8 8 0 0 1 -5-1.753l-40-32 10-12.494 37.807 30.247h31.159l14.342-50.2a8 8 0 0 1 7.692-5.8h48v16h-41.966l-14.342 50.2a8 8 0 0 1 -7.692 5.8z" fill="#c378cb"/><path d="m336 96a16 16 0 1 1 16-16 16.019 16.019 0 0 1 -16 16z" fill="#ffba40"/><path d="m480 72a16 16 0 1 1 16-16 16.019 16.019 0 0 1 -16 16z" fill="#ffba40"/><path d="m432 72a16 16 0 1 1 16-16 16.019 16.019 0 0 1 -16 16z" fill="#ffba40"/><path d="m376 128a16 16 0 1 1 16-16 16.019 16.019 0 0 1 -16 16z" fill="#ffba40"/><path d="m416 128a16 16 0 1 1 16-16 16.019 16.019 0 0 1 -16 16z" fill="#ffba40"/><path d="m407.667 477.072-16-.144.3-33.644-37.627-37.627 11.314-11.314 40 40a8 8 0 0 1 2.346 5.729z" fill="#c378cb"/><path d="m400 432h56v16h-56z" fill="#c378cb"/><path d="m456 456a16 16 0 1 1 16-16 16.019 16.019 0 0 1 -16 16z" fill="#ffba40"/><path d="m368 424a16 16 0 1 1 16-16 16.019 16.019 0 0 1 -16 16z" fill="#ffba40"/><path d="m400 496a16 16 0 1 1 16-16 16.019 16.019 0 0 1 -16 16z" fill="#ffba40"/><path d="m400 456a16 16 0 1 1 16-16 16.019 16.019 0 0 1 -16 16z" fill="#ffba40"/><path d="m168 480h-16v-59.056l-54.827-27.413-51.967 44.543-10.412-12.148 56-48a8 8 0 0 1 8.784-1.081l64 32a8 8 0 0 1 4.422 7.155z" fill="#c378cb"/><path d="m40 448a16 16 0 1 1 16-16 16.019 16.019 0 0 1 -16 16z" fill="#ffba40"/><path d="m96 400a16 16 0 1 1 16-16 16.019 16.019 0 0 1 -16 16z" fill="#ffba40"/><path d="m160 432a16 16 0 1 1 16-16 16.019 16.019 0 0 1 -16 16z" fill="#ffba40"/><path d="m160 496a16 16 0 1 1 16-16 16.019 16.019 0 0 1 -16 16z" fill="#ffba40"/><path d="m38.946 331.969-13.892-7.938 30.946-54.156v-61.875h16v64a8 8 0 0 1 -1.054 3.969z" fill="#c378cb"/><path d="m32 344a16 16 0 1 1 16-16 16.019 16.019 0 0 1 -16 16z" fill="#ffba40"/><path d="m64 288a16 16 0 1 1 16-16 16.019 16.019 0 0 1 -16 16z" fill="#ffba40"/><path d="m64 224a16 16 0 1 1 16-16 16.019 16.019 0 0 1 -16 16z" fill="#ffba40"/><path d="m428.223 224h71.554v16h-71.554z" fill="#c378cb" transform="matrix(.447 -.894 .894 .447 48.986 543.261)"/><path d="m480 216a16 16 0 1 1 16-16 16.019 16.019 0 0 1 -16 16z" fill="#ffba40"/><path d="m448 280a16 16 0 1 1 16-16 16.019 16.019 0 0 1 -16 16z" fill="#ffba40"/><circle cx="256" cy="408" fill="#7e6dd1" r="24"/><path d="m408.421 168a24 24 0 1 0 -27 35.182 24.137 24.137 0 0 0 6.251.828 24.016 24.016 0 0 0 20.749-36.01z" fill="#7e6dd1"/><path d="m136.364 159.215a24 24 0 1 0 -12.039 44.795 24.137 24.137 0 0 0 6.251-.828 24 24 0 0 0 5.788-43.967z" fill="#7e6dd1"/></g></svg>