<svg height="512" viewBox="0 0 512 512" width="512" xmlns="http://www.w3.org/2000/svg"><g id="Flat"><path d="m256 64a24 24 0 1 1 24-24 24.027 24.027 0 0 1 -24 24zm0-32a8 8 0 1 0 8 8 8.009 8.009 0 0 0 -8-8z" fill="#5540b0"/><path d="m256 56a120 120 0 1 0 120 120 120 120 0 0 0 -120-120zm0 208a88 88 0 1 1 88-88 88 88 0 0 1 -88 88z" fill="#5f4bbc"/><path d="m288 365.25v86.97a32 32 0 0 1 -17.69 28.62l-14.31 7.16-14.31-7.16a32 32 0 0 1 -17.69-28.62v-86.97a32 32 0 0 1 9.37-22.62l22.63-22.63 22.63 22.63a32 32 0 0 1 9.37 22.62z" fill="#c04a42"/><path d="m288 405.72-24-17.753v-75.967h-16v44.68l-24 24v22.64l24-24v17.36l-24 24v22.64l24-24v36.68h16v-48.139l24 17.759z" fill="#cd5c53"/><circle cx="256" cy="312" fill="#c04a42" r="16"/><path d="m192 341.25v86.97a32 32 0 0 1 -17.69 28.62l-14.31 7.16-14.31-7.16a31.952 31.952 0 0 1 -17.69-28.62v-86.97a32 32 0 0 1 9.37-22.62l22.63-22.63 22.63 22.63a32 32 0 0 1 9.37 22.62z" fill="#c04a42"/><path d="m192 374.05v20.02l-24-18.05v55.98h-16v-20.69l-23.35 23.35a32.048 32.048 0 0 1 -.65-6.44v-15.53l24-24v-25.38l-24 24v-22.62l24-24v-84.69h16v100.01z" fill="#cd5c53"/><path d="m160 304a16 16 0 1 1 16-16 16.019 16.019 0 0 1 -16 16z" fill="#c04a42"/><path d="m160 280a16 16 0 1 1 16-16 16.019 16.019 0 0 1 -16 16z" fill="#af3b34"/><path d="m384 341.25v86.97a31.969 31.969 0 0 1 -17.69 28.62l-14.31 7.16-14.31-7.16a32 32 0 0 1 -17.69-28.62v-86.97a32 32 0 0 1 9.37-22.62l22.63-22.63 22.63 22.63a32 32 0 0 1 9.37 22.62z" fill="#c04a42"/><path d="m360 355.49v33.26l24 24.71v14.76a32.03 32.03 0 0 1 -.85 7.34l-23.15-23.84v20.28h-16v-56.15l-24 17.73v-19.89l24-17.73v-99.96h16v76.72l24 24.31v22.77z" fill="#cd5c53"/><path d="m352 304a16 16 0 1 1 16-16 16.019 16.019 0 0 1 -16 16z" fill="#c04a42"/><path d="m352 280a16 16 0 1 1 16-16 16.019 16.019 0 0 1 -16 16z" fill="#af3b34"/><path d="m310.876 176c16.324-17.582 27.757-39.03 28.409-40.267a8 8 0 0 0 -6.77-11.727c-1.4-.054-25.688-.879-49.078 4.468-7.064-22.928-19.921-43.551-20.666-44.735a8 8 0 0 0 -13.542 0c-.745 1.184-13.6 21.807-20.666 44.735-23.39-5.348-47.682-4.523-49.078-4.468a8 8 0 0 0 -6.77 11.727c.652 1.237 12.085 22.685 28.409 40.267-16.324 17.582-27.757 39.03-28.409 40.267a8 8 0 0 0 6.77 11.727c.354.014 2.172.077 5.074.077 8.561 0 26.534-.553 44-4.547 7.064 22.929 19.922 43.553 20.667 44.737a8 8 0 0 0 13.542 0c.745-1.184 13.6-21.808 20.666-44.737 17.471 3.994 35.445 4.547 44 4.547 2.9 0 4.72-.063 5.074-.077a8 8 0 0 0 6.77-11.727c-.645-1.237-12.078-22.685-28.402-40.267zm-116.947-35.837a181.054 181.054 0 0 1 30.971 3.867 71.366 71.366 0 0 0 -.9 10.827c0 .911.012 1.8.031 2.686q-1.159.635-2.342 1.315a71.313 71.313 0 0 0 -8.937 6.2 181.1 181.1 0 0 1 -18.823-24.895zm-.01 71.674a180.357 180.357 0 0 1 18.826-24.9 71.33 71.33 0 0 0 8.944 6.206c.79.455 1.569.891 2.342 1.315-.019.881-.031 1.775-.031 2.686a71.264 71.264 0 0 0 .9 10.828 181.132 181.132 0 0 1 -30.981 3.865zm62.081-107.511a181.117 181.117 0 0 1 12.134 28.746 71.066 71.066 0 0 0 -9.823 4.644q-1.183.682-2.311 1.37-1.129-.687-2.311-1.37a71.066 71.066 0 0 0 -9.823-4.644 181.117 181.117 0 0 1 12.134-28.746zm0 143.348a181.1 181.1 0 0 1 -12.136-28.752 71.241 71.241 0 0 0 9.825-4.638q1.184-.682 2.311-1.37 1.13.687 2.311 1.37a71.241 71.241 0 0 0 9.825 4.638 181.062 181.062 0 0 1 -12.136 28.752zm0-55.674a16 16 0 1 1 16-16 16 16 0 0 1 -16 16zm62.081-51.837a180.357 180.357 0 0 1 -18.826 24.9 71.33 71.33 0 0 0 -8.944-6.206q-1.183-.683-2.342-1.315c.019-.882.031-1.775.031-2.686a71.379 71.379 0 0 0 -.9-10.828 181.109 181.109 0 0 1 30.981-3.865zm-30.981 67.807a71.366 71.366 0 0 0 .9-10.827c0-.911-.012-1.805-.031-2.686.773-.424 1.552-.86 2.342-1.315a71.313 71.313 0 0 0 8.937-6.2 181.1 181.1 0 0 1 18.823 24.895 181.054 181.054 0 0 1 -30.971-3.867z" fill="#c378cb"/></g></svg>