<svg height="512" viewBox="0 0 512 512" width="512" xmlns="http://www.w3.org/2000/svg"><g id="Flat"><path d="m464 359.036-28.97-115.881a16 16 0 0 0 -15.522-12.119h-11.508l-36.491-116.773a16 16 0 0 0 -15.272-11.227h-49.951l-7.576-35.353a16 16 0 0 0 -15.645-12.647h-55.4a16 16 0 0 0 -15.232 11.1l-22.145 68.9h-26.756a16 16 0 0 0 -15.179 10.94l-12.353 37.06h-35.228a16 16 0 0 0 -15.6 12.454l-37.172 163.546-19.314 19.314a16 16 0 0 0 -4.686 11.313v65.373h464v-71.436a16 16 0 0 0 -7.125-13.313z" fill="#5f4bbc"/><g fill="#5540b0"><path d="m155.623 197.8 10.487 36.7a8 8 0 0 0 9.89 5.5 8 8 0 0 0 5.5-9.89l-1.751-6.11h15.759a7.99 7.99 0 0 1 7.762 6.06l3.029 12.119a8 8 0 0 0 9.701 5.821 8 8 0 0 0 5.821-9.7l-3.03-12.12a23.967 23.967 0 0 0 -23.283-18.18h-20.331l-4.169-14.593a24 24 0 0 0 -23.078-17.407h-3.93a8 8 0 0 0 -8 8 8 8 0 0 0 8 8h3.932a8.033 8.033 0 0 1 7.691 5.8z"/><path d="m331.932 160a8.033 8.033 0 0 1 7.691 5.8l10.487 36.7a8 8 0 0 0 9.89 5.5 8 8 0 0 0 5.494-9.89l-10.486-36.7a24.1 24.1 0 0 0 -23.076-17.41h-12.832l-3.929-33a8 8 0 0 0 -8.89-7 8 8 0 0 0 -7 8.89l3.707 31.136a24.026 24.026 0 0 0 -22.988 23.974v16a8 8 0 0 0 8 8 8 8 0 0 0 8-8v-16a8 8 0 0 1 8-8z"/><path d="m408 232a8 8 0 0 0 -8-8h-20.468a23.97 23.97 0 0 0 -22.768 16.411l-9.824 29.469a8 8 0 0 0 5.06 10.12 8 8 0 0 0 10.12-5.06l9.823-29.47a7.988 7.988 0 0 1 7.589-5.47h20.468a8 8 0 0 0 8-8z"/><path d="m227.508 288h-10.021a24.064 24.064 0 0 0 -22.6-16h-31.355a23.97 23.97 0 0 0 -22.768 16.411l-10.53 31.589h-6.7a23.97 23.97 0 0 0 -22.768 16.411l-9.826 29.469a8 8 0 0 0 5.06 10.12 8 8 0 0 0 10.12-5.06l9.823-29.47a7.988 7.988 0 0 1 7.589-5.47h31.976a7.99 7.99 0 0 1 7.762 6.06l3.029 12.119a8 8 0 0 0 9.701 5.821 8 8 0 0 0 5.821-9.7l-3.03-12.12a23.967 23.967 0 0 0 -23.283-18.18h-8.408l8.843-26.53a7.988 7.988 0 0 1 7.589-5.47h31.351a8.022 8.022 0 0 1 7.845 6.431l11.858 59.294a8 8 0 0 0 9.414 6.275 8 8 0 0 0 6.276-9.413l-9.318-46.587h6.55a7.99 7.99 0 0 1 7.762 6.06l11.03 44.119a8 8 0 0 0 9.7 5.821 8 8 0 0 0 5.821-9.7l-11.03-44.12a23.967 23.967 0 0 0 -23.283-18.18z"/><path d="m219.623 149.8 10.487 36.7a8 8 0 0 0 9.89 5.5 8 8 0 0 0 5.494-9.89l-10.486-36.7a24.1 24.1 0 0 0 -23.076-17.41h-13.647a8 8 0 0 0 -8 8 8 8 0 0 0 8 8h13.647a8.033 8.033 0 0 1 7.691 5.8z"/><rect height="16" rx="8" width="48" x="400" y="272"/></g><path d="m372.028 319.036h-39.959a16 16 0 0 0 -15.385 11.6l-12.684 44.4h-29.167a16 16 0 0 0 -14.856 10.058l-27.977 69.942h192l-36.622-124.515a16 16 0 0 0 -15.35-11.485z" fill="#c378cb"/><path d="m176 455.036h-104l11.977-29.942a16 16 0 0 1 14.856-10.058h21.167l3.578-7.156a16 16 0 0 1 14.311-8.844h10.042a16 16 0 0 1 15.385 11.6z" fill="#c378cb"/><path d="m96 264h16v16h-16z" fill="#46349e"/><path d="m200 392h16v16h-16z" fill="#46349e"/><path d="m296 232h16v16h-16z" fill="#46349e"/><path d="m256 96h16v16h-16z" fill="#46349e"/><path d="m432 376h16v16h-16z" fill="#46349e"/><path d="m333.168 368h-21.168a8 8 0 0 0 -8 8 8 8 0 0 0 8 8h21.167a8 8 0 0 1 7.429 5.03l9 22.513a8 8 0 0 0 10.404 4.457 8 8 0 0 0 4.457-10.4l-9.006-22.515a24 24 0 0 0 -22.283-15.085z" fill="#a961b2"/><path d="m296 416h16v16h-16z" fill="#954b9e"/></g></svg>