<svg height="512" viewBox="0 0 512 512" width="512" xmlns="http://www.w3.org/2000/svg"><g id="Flat"><path d="m359.891 465.979c16.07-8.689 30.129-20.811 40.635-37.641 37.931-60.765 22.919-136.438 3.574-199.988-5.72-18.795-11.69-35.573-5.84-55.316 3.438-11.6 12.483-21.128 12.955-33.66.663-17.6-15.77-31.607-28.468-41.566 18.918 14.837-17.068 49.379-22.2 64.147-8.421 24.222 1.6 51.387-6.414 75.306-10.759 32.128-51.16 22.2-51.885-9.542-.62-27.123 18.818-52.558 23.186-79.2 2.388-14.572 2.208-30.051-4.988-43.1-7.664-13.894-18.766-25.627-25.743-39.981-3.675-7.56-5.95-33.439 5-40.477-13.739 4.522-28.603 10.039-35.888 22.405-5.572 9.46-5.492 21.263-2.895 31.9s7.481 20.578 11.152 30.9c4.79 13.474 7.5 28.265 3.6 42.015-4.533 15.986-19.645 29.93-37.024 25.515-13.4-3.4-24.3-19.122-23.023-33.023 1.14-12.463 11.6-22.135 9.174-35.325-1.927-10.452-9.709-19.127-18.866-24.706-9.212-5.614-19.5-7.491-29.313-11.536 11.812 5.111 16.963 19.644 15.159 32.251-2.611 18.246-22.063 39.222-14.261 70.638 7.922 31.9 69.756 67.986 37.128 103.99-29.7 32.777-60.174-6.6-59.4-37.1.572-22.392 1.792-42.153-16.637-57.236-8.062-6.6-17.765-11.183-25.174-18.491a45.5 45.5 0 0 1 -13.4-33.772c-.318 7.97-6.2 17.529-7.519 25.8a76.994 76.994 0 0 0 .419 28.855c3.593 16.05 16.3 27.893 19.85 43.89 4.617 20.8-8.1 40.807-15.6 59.331-19.626 48.467-6.685 110.438 28.199 148.538 3.887 4.246 37.807 47.3 124.8 47.3 36.257 0 77.116-3.5 109.707-21.121z" fill="#c04a42"/><path d="m282.964 304c-.622 15.723-11.489 28.579-14.183 43.791-2.009 11.343 4.291 25.689 16.687 27.357 15.586 2.1 23.653-12.569 22.4-26-1.242-13.348-1.257-26.523 12.239-33.335 4.871-2.458 11.183-4.808 16.6-4.9-2.443 5.631-6.97 10.678-8.274 16.78-1.4 6.557 1.556 12.325 4.11 18.433 11.371 27.2 24.307 60.367 15.376 90.089-10.872 36.185-57.15 51.785-90.947 51.785-22.546 0-49.093-3.278-69.262-13.1-16.236-7.907-25.941-22.035-26.086-40.3-.174-21.966 13.746-40.807 14.7-62.164.591-13.26-7.77-27.64-16.686-36.932 0 0 33.781 11.844 41.57 29.679 6.42 14.7 3.966 32.491 8 47.906 2.618 10.017 9.2 19.324 20.551 19.25 12.074-.079 20.233-10.992 18.924-22.491-1.36-11.948-8.235-22.537-13.126-33.234-3.405-7.446-7.747-14.532-9.9-22.436-8.981-32.935 28.745-53.674 33.468-84.207.69-4.462.555-8.895-1.384-13.023 9.778 11.971 25.874 30.592 25.223 47.052z" fill="#d56a63"/><g fill="#ffba40"><path d="m48.811 322.977 15.925 1.542a151.334 151.334 0 0 1 10.2-42.259l-14.83-6.006a167.32 167.32 0 0 0 -11.295 46.723z"/><path d="m78.017 443.584a175.725 175.725 0 0 0 11.933 16.387l12.362-10.157a159.682 159.682 0 0 1 -10.841-14.89z"/><path d="m442.371 216.7-15.307 4.658c2.064 6.781 3.89 13.065 5.581 19.212l15.427-4.245c-1.73-6.283-3.595-12.702-5.701-19.625z"/><path d="m63.967 341.1-16 .047a192.888 192.888 0 0 0 20.052 84.825l14.328-7.121a176.8 176.8 0 0 1 -18.38-77.751z"/><path d="m452.741 254.373-15.554 3.754c14.093 58.393 14.333 106.416.733 146.817l15.164 5.1c14.591-43.338 14.478-94.26-.343-155.671z"/><path d="m117.059 69.108-6.118 14.784c4.053 1.677 6.172 4.308 7.314 9.081l15.56-3.723c-2.326-9.727-7.964-16.504-16.756-20.142z"/><path d="m135.515 117.251c-.227-2.779-.226-5.881-.225-9.165 0-1.043 0-2.091-.006-3.14l-16 .1c.007 1.012.007 2.023.006 3.03 0 3.462 0 7.044.279 10.477 1.783 21.778 13.885 33.485 26.7 42.892l9.47-12.9c-13.698-10.045-19.178-18.531-20.224-31.294z"/><path d="m339.5 36.959c3.506-3.614 7.87-8.112 9.712-14.848l-15.432-4.222c-.758 2.769-2.967 5.047-5.764 7.93l-.93.961 11.535 11.089z"/><path d="m345.858 72.374c-4.888-5.957-9.5-11.584-11.589-17.242a16.839 16.839 0 0 1 -.891-8.953l-15.687-3.147a32.564 32.564 0 0 0 1.563 17.63c3.017 8.191 8.72 15.14 14.235 21.861 5.59 6.812 10.87 13.248 12.81 20.143l15.4-4.332c-2.845-10.122-9.452-18.174-15.841-25.96z"/><path d="m237.723 23.659c-2.651 4.025-5.391 8.187-7.744 12.53l14.068 7.622c2.025-3.739 4.46-7.437 7.038-11.352 2.617-3.973 5.322-8.081 7.616-12.315l-14.069-7.621c-1.965 3.629-4.367 7.277-6.909 11.136z"/><path d="m239.529 56.773-15.929-1.546a37.135 37.135 0 0 0 4.535 21.452l14.1-7.572a21.134 21.134 0 0 1 -2.706-12.334z"/><path d="m448.34 125.34a75.989 75.989 0 0 0 -7.31-18.823l-14.061 7.633a60.06 60.06 0 0 1 5.794 14.843z"/><path d="m439.989 172.1a58.3 58.3 0 0 0 9.875-28.552l-15.964-1.117a42.49 42.49 0 0 1 -7.227 20.8c-11.552 17.329-3.117 38.561-2.752 39.456l14.817-6.037c-.054-.143-5.538-14.359 1.251-24.55z"/><path d="m358.858 302.445 15.73 2.929c1.646-8.843.927-16.341-2.265-23.6l-14.646 6.444c1.861 4.233 2.223 8.619 1.181 14.227z"/><path d="m368.035 333.72a49.482 49.482 0 0 1 2.271-12.441l-15.384-4.4a64.762 64.762 0 0 0 -2.884 16.525c-.263 13.442 5.452 23.881 10.979 33.976 1.47 2.686 2.859 5.224 4.142 7.824l14.349-7.079c-1.433-2.905-2.97-5.713-4.457-8.428-4.934-9.011-9.196-16.797-9.016-25.977z"/><path d="m142.292 304.19a2.117 2.117 0 0 1 -.3.206l-8.653-13.458c-1.373.882-8.4 6-11.829 20.072l15.544 3.792c1.936-7.932 5.205-10.586 5.238-10.612z"/><path d="m145.812 351.779c-5.6-8.812-10.435-16.423-10.149-25.87l-15.993-.485c-.435 14.364 6.511 25.293 12.638 34.936.859 1.351 1.721 2.707 2.567 4.079 4.524 7.325 3.846 15.457-2.072 24.86l13.541 8.522c11.66-18.526 7.6-32.95 2.146-41.788-.884-1.433-1.782-2.845-2.678-4.254z"/><path d="m264 200h16v32h-16z"/><path d="m40 96h16v32h-16z"/><path d="m400 32h16v32h-16z"/><path d="m56 184h16v32h-16z"/></g></g></svg>