<svg height="512" viewBox="0 0 512 512" width="512" xmlns="http://www.w3.org/2000/svg"><g id="Flat"><path d="m176 264-40 56-64 48-16 32v16h48l8-24 64-24 40-64z" fill="#46349e"/><path d="m496.415 319.585a8.012 8.012 0 0 1 -12.089-.882 62.16 62.16 0 0 1 -12.326-37.33v-18.746a46.627 46.627 0 0 0 -46.627-46.627h-37.373v-16h37.373a62.627 62.627 0 0 1 62.627 62.627v18.746a46.278 46.278 0 0 0 9.127 27.726 8.03 8.03 0 0 1 -.712 10.486z" fill="#46349e"/><path d="m336 288v38.667a100 100 0 0 0 20 60l4 5.333-16 16-7.155 3.578a16 16 0 0 0 -8.845 14.311v14.111h40l48-48v-104z" fill="#46349e"/><path d="m448 312v-51.716a68.283 68.283 0 0 0 -20-48.284 68.283 68.283 0 0 0 -48.284-20h-99.716l-144-56h-72l-40 32 6.75 25 18.635-.738a5.981 5.981 0 0 1 6.206 6.345 5.98 5.98 0 0 1 -5.868 5.611l-16.723.282 6 19.5h25l80 16 48 104h91.835a31.116 31.116 0 0 0 8.183-1.1l83.982-22.9 2.813 9.847a63.637 63.637 0 0 0 61.187 46.153v32l-7.155 3.578a16 16 0 0 0 -8.845 14.311v14.111h40l24-32v-48z" fill="#5f4bbc"/><path d="m200 304v96l-17.473 11.648a14.659 14.659 0 0 0 -6.527 12.2v16.152h56l16-80v-64z" fill="#5f4bbc"/><rect fill="#362684" height="16" rx="8" width="32" x="24" y="160"/><path d="m64 136v-.541a59.645 59.645 0 0 1 25.579-49.254l.568-.394a76.824 76.824 0 0 1 44-13.827c18.118.016 39.853.016 39.853.016l-14 24a168.274 168.274 0 0 1 150.51 93.02l1.49 2.98h-80l2.144 2.144a150.585 150.585 0 0 1 33.335 50.556l4.521 11.3-13.074 5.23a150.583 150.583 0 0 1 -55.926 10.77h-3v72a94.721 94.721 0 0 1 -76.385-38.707l-59.615-81.293 40-48v-40z" fill="#c378cb"/><g fill="#b267ba"><path d="m151 123.082h16v30.336h-16z" transform="matrix(.148 -.989 .989 .148 -1.307 274.983)"/><path d="m138.5 167.076h16v29.347h-16z" transform="matrix(.392 -.92 .92 .392 -78.122 245.313)"/><path d="m146.75 211.237h16.001v29.026h-16.001z" transform="matrix(.672 -.741 .741 .672 -116.431 188.714)"/><path d="m107.5 219.991h16v27.019h-16z" transform="matrix(.777 -.629 .629 .777 -121.19 124.686)"/><path d="m146.5 257.08h16v24.839h-16z" transform="matrix(.765 -.644 .644 .765 -137.273 162.875)"/><path d="m194 216.102h16v29.296h-16z" transform="matrix(.461 -.887 .887 .461 -95.874 303.691)"/><path d="m185 173.829h16v30.842h-16z" transform="matrix(.34 -.94 .94 .34 -50.65 306.293)"/><path d="m216 131.508h16v32.985h-16z" transform="matrix(.243 -.97 .97 .243 26.091 329.417)"/><path d="m112 96h24v16h-24z"/></g><path d="m272 296h16v24h-16z" fill="#4c3aa3"/><path d="m304 296h16v16h-16z" fill="#4c3aa3"/><path d="m367.121 311.787a84.963 84.963 0 0 1 2.109-17.038 8.01 8.01 0 0 1 10.008-6.015 8.008 8.008 0 0 1 5.634 9.392c-2.9 13.479-1.3 19.3-1.278 19.364a2.238 2.238 0 0 0 -.092-.268l-5.6 2.074a7.988 7.988 0 0 1 -10.781-7.509z" fill="#4c3aa3"/></g></svg>