<svg height="512" viewBox="0 0 512 512" width="512" xmlns="http://www.w3.org/2000/svg"><g id="Flat"><path d="m320 392v62.857l-34.156 14.643a9.644 9.644 0 0 0 -5.844 8.858 9.642 9.642 0 0 0 9.642 9.642h62.358v-96z" fill="#cb84d3"/><path d="m296 72 8 8-.115 16h24.115v32h32v-72c0-15.46-13.28-32-28.517-32a28.116 28.116 0 0 0 -19.483 8 28.668 28.668 0 0 0 -8.115 20l.115 4z" fill="#cb84d3"/><path d="m321.153 26.03c8.806 28.364 21.534 45.318 29.992 54.145a31.915 31.915 0 0 1 8.855 22.094v41.731h48l-14.7-24.5a55.9 55.9 0 0 1 -7.885-32.065c.644-10.89.831-24.386-1.417-31.438-6.28-19.7-17.943-32-39.97-32h-12.545a27.126 27.126 0 0 0 -10.33 2.033z" fill="#5f4bbc"/><path d="m453.07 192.386-35.516-50.737a32 32 0 0 0 -26.215-13.649h-95.339l-48-8-51.369-88.062a16 16 0 0 0 -13.821-7.938h-14.81a16 16 0 0 0 -16 16v8l32 8 40 96 72 16 16 32 56 24 16-56 38.333 44.333-22.333 51.667 24.333 24 31.143-62.953a32 32 0 0 0 -2.406-32.661z" fill="#cb84d3"/><path d="m400 320-24 48 72 88-19.359 12.906a10.423 10.423 0 0 0 -4.641 8.672 10.422 10.422 0 0 0 10.422 10.422h21.578l32-24z" fill="#cb84d3"/><path d="m302.421 151.439 17.579-23.439 3.42 5.7a70.647 70.647 0 0 0 60.58 34.3l-16 56a109.256 109.256 0 0 1 32 77.255v105.953a411.99 411.99 0 0 0 8 80.792h-32a64 64 0 0 1 -64-64v-224l-6.6-6.6a32.1 32.1 0 0 1 -9.4-22.7 32.1 32.1 0 0 1 6.421-19.261z" fill="#5f4bbc"/><path d="m376.159 311.841.142-.142a7.942 7.942 0 0 0 .373-10.774c-25.626-30.236-31.157-75.872-32.348-93.564a7.906 7.906 0 0 0 -7.9-7.361h-.221a7.9 7.9 0 0 0 -7.886 8.39c1.233 19.58 7.215 68.825 36.183 102.925a7.926 7.926 0 0 0 11.657.526z" fill="#4c3aa3"/><path d="m376.318 391.682.132-.132a7.91 7.91 0 0 0 .635-10.45c-7.551-9.747-15.252-25.011-22.523-44.716-3.966-10.75-6.972-20.6-8.793-26.97a7.893 7.893 0 0 0 -9.509-5.48l-.207.052a7.894 7.894 0 0 0 -5.683 9.82c4.7 16.513 16.878 54.828 34.105 77.122a7.9 7.9 0 0 0 11.843.754z" fill="#4c3aa3"/><path d="m346.388 396.042a7.9 7.9 0 0 0 -10.152-4.136l-.186.074a7.91 7.91 0 0 0 -4.291 10.546 222.679 222.679 0 0 0 32.855 52.794 7.894 7.894 0 0 0 11.6.464l.151-.151a7.89 7.89 0 0 0 .449-10.683 208.028 208.028 0 0 1 -30.426-48.908z" fill="#4c3aa3"/><g fill="#c04a42"><path d="m68.389 203.694a130.065 130.065 0 0 1 -30.248-3.559l3.718-15.561a114.33 114.33 0 0 0 59.355-1.691l13.372-4.011a129.833 129.833 0 0 1 74.828 0l13.372 4.011a114.34 114.34 0 0 0 59.355 1.691l3.718 15.561a130.336 130.336 0 0 1 -67.671-1.927l-13.372-4.008a113.894 113.894 0 0 0 -65.632 0l-13.372 4.011a130.284 130.284 0 0 1 -37.423 5.483z"/><path d="m144 144h16v24h-16z"/><path d="m144 112h16v16h-16z"/><path d="m144 80h16v16h-16z"/><path d="m144 40h16v24h-16z"/></g><circle cx="152" cy="184" fill="#ffba40" r="24"/><path d="m272.646 299.151-40.646-94.842-40.647 94.842-14.707-6.3 48-112a8 8 0 0 1 14.707 0l48 112z" fill="#c04a42"/><path d="m287.219 288h-110.438a40.066 40.066 0 0 0 39.219 48h32a40.066 40.066 0 0 0 39.219-48z" fill="#ffba40"/><path d="m112.646 299.151-40.646-94.842-40.647 94.842-14.707-6.3 48-112a8 8 0 0 1 14.707 0l48 112z" fill="#c04a42"/><path d="m127.219 288h-110.438a40.066 40.066 0 0 0 39.219 48h32a40.066 40.066 0 0 0 39.219-48z" fill="#ffba40"/><path d="m403.5 260.5-14.2-7.1-23.8-.9 2.5 28 15.849.392 14.742 11.228c8.665 6.6 21.216 5.787 25.742-4.12z" fill="#cb84d3"/><path d="m439.993 288a7.955 7.955 0 0 1 -4.584-1.449l-42.333-29.666a8 8 0 1 1 9.182-13.1l42.333 29.667a8 8 0 0 1 -4.6 14.551z" fill="#ffba40"/></g></svg>