<svg height="512" viewBox="0 0 512 512" width="512" xmlns="http://www.w3.org/2000/svg"><g id="Flat"><path d="m488 256c0 128.13-105.87 232-236.46 232-108.21 0-199.44-71.31-227.54-168.65a132.027 132.027 0 0 0 186.98 42.34 129.668 129.668 0 0 0 35.57-35.6 125.85 125.85 0 0 0 14.79-30.09h-61.34l58.32-88.06c-19.37-46.88-66.21-79.94-120.94-79.94a130.842 130.842 0 0 0 -113.38 64.65c28.1-97.34 119.33-168.65 227.54-168.65 130.59 0 236.46 103.87 236.46 232z" fill="#fcac1e"/><rect fill="#f2951b" height="16" rx="8" width="32" x="256" y="288"/><path d="m350.4 332.8q-1.335 1.785-2.79 3.45c-12.9 14.88-32.71 23.6-55.08 24.08-.63.02-1.26.02-1.89.02-21.37 0-41.12-7.84-53.97-21.33a128.024 128.024 0 0 0 9.88-12.93c9.97 11.84 27.01 18.65 45.64 18.25 17.29-.38 33.03-7.08 42.92-18.12.88-.97 1.71-1.98 2.49-3.02z" fill="#f07800"/><path d="m361.039 256c-23.043 0-43.148-14.983-47.8-35.628l15.608-3.519c3.025 13.412 16.566 23.147 32.2 23.147s29.171-9.735 32.2-23.147l15.608 3.519c-4.668 20.645-24.772 35.628-47.816 35.628z" fill="#f07800"/><path d="m418.845 205.063c-15.1-18.47-36.494-29.063-58.7-29.063-22.15 0-42.753 10.028-58.015 28.236l-12.262-10.277c18.089-21.581 43.704-33.959 70.278-33.959 27.026 0 52.936 12.734 71.087 34.937z" fill="#f07800"/><path d="m376 344a56.063 56.063 0 0 1 -56-56h16a40 40 0 0 0 80 0h16a56.063 56.063 0 0 1 -56 56z" fill="#f07800"/><path d="m274.5 372.5v16c-29.33 0-55.32-19.82-63.52-26.81a129.147 129.147 0 0 0 13.57-10.46c3.14 2.92 23.9 21.27 49.95 21.27z" fill="#f07800"/><path d="m317 386.5v-8l-.068-8c1.136-.02 28.072-.89 49.208-36.116l13.72 8.232c-26.031 43.384-61.368 43.884-62.86 43.884z" fill="#f07800"/><path d="m359.127 415.712-4.254-15.424 2.127 7.712-2.157-7.7a72.961 72.961 0 0 0 40.1-34.061l14.118 7.53c-17.419 32.653-48.614 41.579-49.934 41.943z" fill="#f2951b"/><g fill="#f79c25"><path d="m360 96h16v16h-16z"/><path d="m400 128h16v16h-16z"/><path d="m312 424h16v16h-16z"/><path d="m448 240h16v16h-16z"/><path d="m184 64h16v16h-16z"/><path d="m280 440h16v16h-16z"/><path d="m160 416h16v16h-16z"/><path d="m240 48h16v16h-16z"/></g></g></svg>