<svg height="512" viewBox="0 0 512 512" width="512" xmlns="http://www.w3.org/2000/svg"><g id="Flat"><path d="m384 56a32 32 0 0 0 -32 32v-16a32 32 0 0 0 -32-32 32 32 0 0 0 -32 32v-16a32 32 0 0 0 -32-32 32 32 0 0 0 -32 32v16a32 32 0 0 0 -32-32 32 32 0 0 0 -32 32v136a48 48 0 0 0 -48-48h-16v200a128 128 0 0 0 128 128h64a128 128 0 0 0 128-128v-272a32 32 0 0 0 -32-32z" fill="#b267ba"/><g fill="#d06a69"><path d="m17 12.272h16v25.456h-16z" transform="matrix(.707 -.707 .707 .707 -10.355 25)"/><path d="m66.125 30.815h16v86.621h-16z" transform="matrix(.707 -.707 .707 .707 -30.704 74.125)"/><path d="m118.375 112.763h16v27.224h-16z" transform="matrix(.707 -.707 .707 .707 -52.346 126.375)"/><path d="m13.101 481h19.799v16h-19.799z" transform="matrix(.707 -.707 .707 .707 -339.024 159.473)"/><path d="m35.189 437.875h61.872v16h-61.872z" transform="matrix(.707 -.707 .707 .707 -295.902 177.336)"/><path d="m468.167 459.432h16v33.47h-16z" transform="matrix(.707 -.707 .707 .707 -197.235 476.16)"/><path d="m435.5 427.237h16v32.527h-16z" transform="matrix(.707 -.707 .707 .707 -183.704 443.5)"/><path d="m471.905 22.666h18.856v16h-18.856z" transform="matrix(.707 -.707 .707 .707 119.281 349.32)"/><path d="m434.753 51.333h35.827v16h-35.827z" transform="matrix(.707 -.707 .707 .707 90.616 337.446)"/><path d="m436.695 142h62.61v16h-62.61z" transform="matrix(.894 -.447 .447 .894 -17.674 225.132)"/><path d="m439.667 248h15.667v16h-15.667z"/><path d="m472 248h24v16h-24z"/><path d="m460 330.695h16v62.61h-16z" transform="matrix(.447 -.894 .894 .447 -65.079 618.701)"/><path d="m12.476 353.517h63.048v15.999h-63.048z" transform="matrix(.888 -.459 .459 .888 -161.173 60.627)"/><path d="m16 248h56v16h-56z"/><path d="m36 118.959h15.999v63.048h-15.999z" transform="matrix(.459 -.888 .888 .459 -109.876 120.429)"/></g><path d="m184 160h40v16h-40z" fill="#a45bad"/><path d="m184 96h40v16h-40z" fill="#a45bad"/><path d="m248 152h40v16h-40z" fill="#a45bad"/><path d="m248 88h40v16h-40z" fill="#a45bad"/><path d="m312 160h40v16h-40z" fill="#a45bad"/><path d="m312 96h40v16h-40z" fill="#a45bad"/><path d="m376 176h40v16h-40z" fill="#a45bad"/><path d="m376 112h40v16h-40z" fill="#a45bad"/><path d="m120 224h40v16h-40z" fill="#a45bad"/><path d="m120 280h40v16h-40z" fill="#a45bad"/><path d="m192 256h192v16h-192z" fill="#a45bad"/><path d="m361.187 412.192c-25.5-41.429-61.669-71.546-107.516-89.513-34.425-13.491-61.695-14.674-61.966-14.685l.581-15.989c1.2.043 29.776 1.213 66.613 15.539 33.989 13.218 81.69 40.648 115.914 96.264z" fill="#a45bad"/><rect fill="#9d52a5" height="152" rx="8" width="16" x="216" y="72"/><rect fill="#9d52a5" height="152" rx="8" width="16" x="280" y="72"/><rect fill="#9d52a5" height="144" rx="8" width="16" x="344" y="80"/><rect fill="#9d52a5" height="128" rx="8" width="16" x="152" y="208"/></g></svg>