<svg height="512" viewBox="0 0 512 512" width="512" xmlns="http://www.w3.org/2000/svg"><g id="Flat"><g fill="#bc4598"><circle cx="32" cy="96" r="16"/><circle cx="272" cy="304" r="16"/><circle cx="416" cy="480" r="16"/><path d="m80 32h16v16h-16z"/><path d="m48 48h16v16h-16z"/><path d="m216 176h16v16h-16z"/><path d="m344 264h16v16h-16z"/><path d="m152 232h16v16h-16z"/><path d="m464 400h16v16h-16z"/><path d="m448 432h16v16h-16z"/></g><path d="m457.667 78.333c-1.667-9-1.667-22.333-1.667-22.333h-104l41 32c20-5 81 22 81 22s-14.667-22.667-16.333-31.667z" fill="#c378cb"/><path d="m384 224s-6 41 4 72l28-32z" fill="#b267ba"/><path d="m311 179-24-15s-13 45 9 108c0 0 8-24 40-32z" fill="#c378cb"/><path d="m476.61 328a231.663 231.663 0 0 1 -39.43 72.91c-21.08 26.32-38.69 39.98-69.18 55.09-1.34-5.25-2.84-10.82-3.98-16.56a81.781 81.781 0 0 1 -1.78-18.78c.59-15.54 7.42-31.26 29.76-44.66 0 0-41.72 6.47-59.49-31.4a78.386 78.386 0 0 1 -5.88-18.7 134.694 134.694 0 0 1 -1.63-33.57s91 67.67 139 35.67z" fill="#b267ba"/><path d="m437.18 400.91c12.03-86.6-15.49-158.06-149.18-224.91-16-8-56-24-56-24l-18.09-125.02s10.5-1.05 21.6-1.91c5.6-.43 11.36-.8 15.99-.97 1.67-.07 3.19-.1 4.5-.1 128.13 0 232 103.87 232 232a231.025 231.025 0 0 1 -50.82 144.91z" fill="#5f4bbc"/><path d="m450.555 291.435c-5.637-47.909-24-75.71-37.316-92.455l12.522-9.96c23.1 29.043 36.031 60.993 40.684 100.545z" fill="#4c3aa3"/><circle cx="296" cy="72" fill="#362684" r="16"/><path d="m364.5 129.5-16.167 22.986c12.941 6.05 31.542 31.514 31.542 31.514l44.625-17.5c-20.489-24.2-60-37-60-37z" fill="#c378cb"/><path d="m297.94 159.761-3.88-15.522 28.785-7.2 20.255-33.752-14.528-36.316 14.856-5.942 16 40a8 8 0 0 1 -.568 7.087l-24 40a8 8 0 0 1 -4.92 3.645z" fill="#4c3aa3"/><path d="m186.5 35-17.5 9s18.5 86.5 63 108l10-7.5c4.555-3.893 6.5-14.5-3.5-22.5-10.024-8.019-31.66-40.033-52-87z" fill="#705dc9"/><path d="m260.28 97.38-15.89 1.9-8.88-74.21c5.6-.43 11.36-.8 15.99-.97z" fill="#4c3aa3"/><path d="m55.333 433.667c1.667 9 1.667 22.333 1.667 22.333h104l-41-32c-20 5-81-22-81-22s14.667 22.667 16.333 31.667z" fill="#c378cb"/><path d="m129 288s6-41-4-72l-28 32z" fill="#b267ba"/><path d="m202 333 24 15s13-45-9-108c0 0-8 24-40 32z" fill="#c378cb"/><path d="m36.39 184a231.663 231.663 0 0 1 39.43-72.91c21.08-26.32 38.69-39.98 69.18-55.09 1.34 5.25 2.84 10.82 3.98 16.56a81.781 81.781 0 0 1 1.78 18.78c-.59 15.54-7.42 31.26-29.76 44.66 0 0 41.72-6.47 59.49 31.4a78.386 78.386 0 0 1 5.88 18.7 134.694 134.694 0 0 1 1.63 33.57s-91-67.67-139-35.67z" fill="#b267ba"/><path d="m75.82 111.09c-12.03 86.6 15.49 158.06 149.18 224.91 16 8 56 24 56 24l18.09 125.02s-10.5 1.05-21.6 1.91c-5.6.43-11.36.8-15.99.97-1.67.07-3.19.1-4.5.1-128.13 0-232-103.87-232-232a231.025 231.025 0 0 1 50.82-144.91z" fill="#5f4bbc"/><path d="m62.445 220.565c5.637 47.909 24 75.71 37.316 92.455l-12.522 9.96c-23.1-29.043-36.031-60.993-40.684-100.545z" fill="#4c3aa3"/><circle cx="217" cy="440" fill="#362684" r="16"/><path d="m148.5 382.5 16.167-22.986c-12.941-6.05-31.542-31.514-31.542-31.514l-44.625 17.5c20.489 24.2 60 37 60 37z" fill="#c378cb"/><path d="m215.06 352.239 3.88 15.522-28.785 7.2-20.255 33.752 14.527 36.316-14.856 5.942-16-40a8 8 0 0 1 .568-7.087l24-40a8 8 0 0 1 4.92-3.645z" fill="#4c3aa3"/><path d="m372.78 340.72-4.89 15.23-35.38-11.35a78.386 78.386 0 0 1 -5.88-18.7z" fill="#a45bad"/><path d="m396.86 414.36-32.84 25.08a81.781 81.781 0 0 1 -1.78-18.78l24.9-19.02z" fill="#a45bad"/><path d="m140.22 171.28 4.89-15.23 35.38 11.35a78.386 78.386 0 0 1 5.88 18.7z" fill="#a45bad"/><path d="m116.14 97.64 32.84-25.08a81.781 81.781 0 0 1 1.78 18.78l-24.9 19.02z" fill="#a45bad"/><path d="m326.5 477 17.5-9s-18.5-86.5-63-108l-10 7.5c-4.555 3.893-6.5 14.5 3.5 22.5 10.024 8.019 31.66 40.033 52 87z" fill="#705dc9"/><path d="m252.72 414.62 15.89-1.9 8.88 74.21c-5.6.43-11.36.8-15.99.97z" fill="#4c3aa3"/><path d="m384 96h16v16h-16z" fill="#5540b0"/><path d="m112 296h16v16h-16z" fill="#5540b0"/><path d="m113 400h16v16h-16z" fill="#5540b0"/></g></svg>