<svg height="512" viewBox="0 0 512 512" width="512" xmlns="http://www.w3.org/2000/svg"><g id="Flat"><path d="m159.3 61.426c-51.284-51.283-132.829-34.955-132.829-34.955s-16.327 81.545 34.955 132.829c43.957 43.957 113.721 15.848 113.721 15.848s28.109-69.765-15.847-113.722z" fill="#5f4bbc"/><path d="m197.657 186.343-38.434-38.435-1.327-5.3a78.762 78.762 0 0 1 1.694-44.074l-15.18-5.058a94.74 94.74 0 0 0 -4.737 34.887l-12.45-12.45-1.323-5.313a78.762 78.762 0 0 1 1.694-44.074l-15.18-5.058a94.74 94.74 0 0 0 -4.737 34.887l-12.45-12.45-1.327-5.305a78.569 78.569 0 0 1 -1.664-29.546l-15.863-2.111a94.875 94.875 0 0 0 -.694 17.422l-22.022-22.022-11.314 11.314 22.022 22.022a94.709 94.709 0 0 0 -17.422.694l2.114 15.859a78.625 78.625 0 0 1 29.543 1.668l5.305 1.327 12.451 12.45a94.742 94.742 0 0 0 -34.888 4.737l5.058 15.18a78.772 78.772 0 0 1 44.074-1.694l5.305 1.327 12.45 12.45a94.761 94.761 0 0 0 -34.887 4.737l5.058 15.18a78.772 78.772 0 0 1 44.074-1.694l5.3 1.327 38.435 38.434z" fill="#5540b0"/><path d="m450.574 159.3c51.283-51.283 34.955-132.828 34.955-132.828s-81.545-16.328-132.829 34.954c-43.957 43.957-15.848 113.721-15.848 113.721s69.765 28.109 113.722-15.847z" fill="#5f4bbc"/><path d="m325.657 197.657 38.435-38.434 5.308-1.323a78.762 78.762 0 0 1 44.074 1.694l5.058-15.18a94.74 94.74 0 0 0 -34.887-4.737l12.45-12.45 5.305-1.327a78.762 78.762 0 0 1 44.074 1.694l5.058-15.18a94.74 94.74 0 0 0 -34.887-4.737l12.45-12.45 5.305-1.327a78.569 78.569 0 0 1 29.546-1.664l2.114-15.859a94.875 94.875 0 0 0 -17.422-.694l22.022-22.022-11.317-11.318-22.022 22.022a94.709 94.709 0 0 0 -.694-17.422l-15.859 2.114a78.625 78.625 0 0 1 -1.668 29.543l-1.327 5.305-12.45 12.451a94.742 94.742 0 0 0 -4.737-34.888l-15.18 5.058a78.772 78.772 0 0 1 1.694 44.074l-1.327 5.305-12.45 12.45a94.761 94.761 0 0 0 -4.737-34.887l-15.18 5.058a78.772 78.772 0 0 1 1.694 44.074l-1.327 5.3-38.434 38.435z" fill="#5540b0"/><path d="m352.7 450.574c51.283 51.283 132.828 34.955 132.828 34.955s16.327-81.545-34.955-132.828c-43.957-43.957-113.721-15.848-113.721-15.848s-28.108 69.764 15.848 113.721z" fill="#5f4bbc"/><path d="m314.343 325.657 38.434 38.435 1.323 5.308a78.762 78.762 0 0 1 -1.694 44.074l15.18 5.058a94.74 94.74 0 0 0 4.737-34.887l12.45 12.45 1.327 5.305a78.762 78.762 0 0 1 -1.694 44.074l15.18 5.058a94.74 94.74 0 0 0 4.737-34.887l12.45 12.45 1.327 5.305a78.569 78.569 0 0 1 1.664 29.546l15.859 2.114a94.875 94.875 0 0 0 .694-17.422l22.022 22.022 11.314-11.314-22.022-22.022a94.709 94.709 0 0 0 17.422-.694l-2.114-15.859a78.625 78.625 0 0 1 -29.539-1.671l-5.305-1.327-12.451-12.45a94.742 94.742 0 0 0 34.888-4.737l-5.058-15.18a78.772 78.772 0 0 1 -44.074 1.694l-5.305-1.327-12.45-12.45a94.761 94.761 0 0 0 34.887-4.737l-5.058-15.18a78.772 78.772 0 0 1 -44.074 1.694l-5.305-1.327-38.435-38.434z" fill="#5540b0"/><path d="m61.426 352.7c-51.283 51.284-34.955 132.829-34.955 132.829s81.545 16.327 132.828-34.955c43.957-43.957 15.848-113.721 15.848-113.721s-69.764-28.109-113.721 15.847z" fill="#5f4bbc"/><path d="m186.343 314.343-38.435 38.434-5.3 1.327a78.762 78.762 0 0 1 -44.074-1.694l-5.058 15.18a94.74 94.74 0 0 0 34.887 4.737l-12.45 12.45-5.313 1.323a78.762 78.762 0 0 1 -44.074-1.694l-5.058 15.18a94.74 94.74 0 0 0 34.887 4.737l-12.45 12.45-5.305 1.327a78.569 78.569 0 0 1 -29.546 1.664l-2.114 15.859a94.875 94.875 0 0 0 17.422.694l-22.019 22.026 11.314 11.314 22.022-22.022a94.709 94.709 0 0 0 .694 17.422l15.859-2.114a78.625 78.625 0 0 1 1.668-29.543l1.327-5.305 12.45-12.451a94.742 94.742 0 0 0 4.737 34.888l15.18-5.058a78.772 78.772 0 0 1 -1.694-44.074l1.327-5.305 12.45-12.45a94.761 94.761 0 0 0 4.737 34.887l15.18-5.058a78.772 78.772 0 0 1 -1.694-44.074l1.327-5.305 38.434-38.435z" fill="#5540b0"/><path d="m449.462 277.182-.05-.052c-7.69-7.93-37.53-19.63-50.99-25.15l-18.753-4.98s-3.744 4-9.363 11.057c-11.632 14.612-31.343 42.4-42.806 75.443-9.745 28.088-19.166 105.5-19.167 105.5s29.334 8.167 65.709-6.41c28.323-11.35 17.54-41.73 38.19-58.02 16.59-13.09 44.54-27.19 50.57-53.94 4.183-18.55-3.146-32.912-13.34-43.448z" fill="#a34040"/><path d="m445.588 219.226c-8.815-11.777-16.06-23.96-15.265-38.616.774-14.107 6.791-27.786 1.857-41.862-12.416-35.461-51.658-40.478-86.874-48.692-16.462-3.837-28.785-13.995-42.492-22.26a81.181 81.181 0 0 0 -43.308-11.796 44.488 44.488 0 0 0 -26.906 9.018c-24.559 18.062-35.536 52.626-44.6 80.482 0 0 8.321 9.52 28.665 24.937 18.382 13.928 46.574 32.669 87.335 53.563 24.724 12.673 47.148 24.2 66.306 34.057 5.619-7.057 9.363-11.057 9.363-11.057l18.753 4.98c13.46 5.52 43.3 17.22 50.99 25.15l.05.052c.651-1.017 1.08-1.685 1.152-1.794a66.993 66.993 0 0 0 7.937-16.845c4.449-14.025-4.51-28.01-12.963-39.317z" fill="#b34f4f"/><path d="m317.185 364.419-171.22-62.619c-11.216 19.025-18.417 30.837-17.965 31.2l-28.5-8.269c-12.71-6.331-21.132-14.677-26.282-23.847-.168-.3-.318-.6-.479-.9-9.341 17.08-15.493 40.757 4.669 60.377 36.063 35.073 13.263 53.312 39.066 72.152 37.064 27.063 68.11-13.028 90.146 3 18.406 13.389 46.452 21.457 69.213 20.313 13.177-.662 22.834-2.333 33.667-17 17.438-23.607 27.5-67.166 27.5-67.166z" fill="#a34040"/><path d="m176.193 61.089c-47.406 17.72-37.043 42.748-54.465 61.068-12.252 12.876-31.352 15.791-42.792 30.354-10.294 13.1-14.655 31.162-10.3 47.37 4.845 18.043 9.26 26.119 5 44.643-3.535 15.36-9.606 32.126-4.243 47.821a51.08 51.08 0 0 0 3.354 7.643c.161.3.311.6.479.9 5.15 9.17 13.572 17.516 26.288 23.847l28.486 8.265c-.454-.363 6.747-12.175 17.963-31.2 18.144-30.781 46.816-80.485 70.7-131.36-20.34-15.42-28.663-24.94-28.663-24.94 9.062-27.856 20.039-62.42 44.6-80.482-16.392-7.41-36.126-11.512-56.407-3.929z" fill="#a34040"/><path d="m142.822 177.49c-15.29 6.19-27.87 17.88-32.81 34.14-7.7 25.34 11.21 41.27 10.13 66.93-.7 16.29-14.95 31.79-10.45 48.41 6.09 22.46 33.27 27.63 52.42 32.34 18.09 4.43 29.49 11.07 43.35 24.42 20.22 19.49 39.27 29.11 67.43 10.18a48.052 48.052 0 0 0 9.35-8.29c9.2-10.55 13.79-24.44 16.07-36.49l.023-29.463-98.942-108.5c-20.868 7.42-36.551 14.715-36.551 14.715s-21.37-32.542-20.02-48.392z" fill="#b34c4b"/><path d="m371.972 151.67c-20.64-26.46-37.15-21.71-61.92-26.46-24.43-4.68-20.65-25.78-58.49-25.78-20.75 0-36.47 23.75-54.01 34.94a29.415 29.415 0 0 1 -7.1 2.95c-15.93 4.86-44.51 7.8-47.61 39.8-.01.12-.02.23-.02.36v.01c-1.35 15.85 20.02 48.39 20.02 48.39s15.683-7.295 36.551-14.715c24.387-8.672 55.856-17.516 77.679-15.091 40.498 4.5 87.928 15.926 87.928 15.926 3.5-8 12.43-30.94 12.6-32.12 1.552-11.17 1.422-19.17-5.628-28.21z" fill="#bd5857"/><path d="m265.073 301.069c-13.5 75 17.171 84.547 17.171 84.547 14.156 9.507 43.117 20.544 66.756-.616 25.578-22.894 1.452-50.837 21.333-79.333 20-28.667 34.849-49.278 26-76.667-13.998-43.333-76.333-45-100.333-13 0 0-17.428 10.073-30.927 85.069z" fill="#b34c4b"/><path d="m325.642 252.95c-4.779-17.147-15.207-30.1-29.234-37.456h-.006c-9.77-5.13-21.27-7.56-33.83-6.82-69.718 4.102-45.572 73.826-45.414 74.285.008-24.455 22.928-32.985 40.9-27.264a29.891 29.891 0 0 1 14.742 10.205c10.794 13.961 7.889 36.263-12.235 42.646-25.065 7.949-71.552-13.787-89.093-43.771-6.63 8.97-19.7 30.67-6.95 48.72 11.62 16.48 23.89 23.55 48.51 26.47 21.47 2.54 41.01 28.4 63.99 21.37 9.52-2.91 16.27-7.19 21.29-12.21 10.76-10.78 13.55-25.03 18.53-36.8 8.23-19.435 14.69-38.235 8.8-59.375z" fill="#bd5857"/><path d="m335.852 189.33c-12.244-15.744-18.58-31.55-53.67-34.6-35.33-3.08-38.19 12.21-58.83 21.37-20.11 8.93-54.93-1.47-60.52 49.77-.15 1.35-.27 2.74-.38 4.17-1 13.51 3.147 24.82 9.02 34.74 18.778 31.72 60.58 53.087 89.195 44.553 26.435-7.884 24.5-42.772 4-53.666-8.159-4.336-19.977-5.613-28.667-2.417-11.828 4.35-19.75 13.75-18.842 29.709-.162-.467-24.3-70.183 45.414-74.289 12.56-.74 24.06 1.69 33.836 6.824 10.053-13.026 26.513-20.342 43.354-21.379-1.362-1.603-2.691-3.215-3.91-4.785z" fill="#b34c4b"/></g></svg>