<svg height="512" viewBox="0 0 512 512" width="512" xmlns="http://www.w3.org/2000/svg"><g id="Flat"><path d="m440 424h-368l-48-48v-240l48-48h368l48 48v240z" fill="#b44037"/><path d="m392 328v48h-272v-48h-48v-144h48v-48h272v48h48v144z" fill="#c45c5b"/><path d="m120 184h272v144h-272z" fill="#d06a69"/><path d="m24 136 48-48 48 48v48h-48z" fill="#c04a42"/><path d="m440 88 48 48-48 48h-48v-48z" fill="#c04a42"/><path d="m488 376-48 48-48-48v-48h48z" fill="#c04a42"/><path d="m72 424-48-48 48-48h48v48z" fill="#c04a42"/><g fill="#f98500"><path d="m248 16h16v17h-16z"/><path d="m248 47.667h16v16.333h-16z"/><path d="m481.166 479.502h16.001v19.328h-16.001z" transform="matrix(.707 -.707 .707 .707 -202.619 489.167)"/><path d="m449.166 444.203h16.001v25.927h-16.001z" transform="matrix(.707 -.707 .707 .707 -189.365 457.167)"/><path d="m43.166 33.017h16.001v36.299h-16.001z" transform="matrix(.707 -.707 .707 .707 -21.194 51.167)"/><path d="m14.333 13.377h16.001v17.914h-16.001z" transform="matrix(.707 -.707 .707 .707 -9.251 22.333)"/><path d="m356 445.167h16v53.666h-16z" transform="matrix(.894 -.447 .447 .894 -172.656 212.616)"/><path d="m140 13.167h16v53.666h-16z" transform="matrix(.894 -.447 .447 .894 -2.264 70.411)"/><path d="m121.167 464h53.666v16h-53.666z" transform="matrix(.447 -.894 .894 .447 -340.353 393.264)"/><path d="m337.167 32h53.666v16h-53.666z" transform="matrix(.447 -.894 .894 .447 165.42 347.672)"/><path d="m12.686 479.999h22.627v16.001h-22.627z" transform="matrix(.707 -.707 .707 .707 -338.039 159.902)"/><path d="m43.479 448.499h24.042v16.001h-24.042z" transform="matrix(.707 -.707 .707 .707 -306.539 172.95)"/><path d="m443.927 46.166h27.813v16.001h-27.813z" transform="matrix(.707 -.707 .707 .707 95.795 339.602)"/><path d="m477.893 15.499h21.213v16.001h-21.213z" transform="matrix(.707 -.707 .707 .707 126.461 352.305)"/><path d="m248 480h16v16h-16z"/><path d="m248 448h16v16h-16z"/></g><path d="m144 208h16v16h-16z" fill="#dd7e7e"/><path d="m144 240h16v64h-16z" fill="#dd7e7e"/><path d="m368 240h-16v-16h-16v-16h24a8 8 0 0 1 8 8z" fill="#dd7e7e"/></g></svg>