<svg height="512" viewBox="0 0 512 512" width="512" xmlns="http://www.w3.org/2000/svg"><g id="Flat"><path d="m408 160v24a32 32 0 0 1 -12.8 25.6l-19.2 14.4h-64l-19.2-14.4a32 32 0 0 1 -12.8-25.6v-24z" fill="#a961b2"/><path d="m160 152a16 16 0 0 1 -16-16h-8a8 8 0 0 1 -8-8 8 8 0 0 1 8-8h16l16 8h88s24-16 48 0h16v-32h-16v-24h-12l12-32h48l16 88h8l2.578-1.289a25.859 25.859 0 0 1 25.908 1.613 25.857 25.857 0 0 1 11.514 21.515v2.18a25.859 25.859 0 0 1 -14.294 23.128l-17.706 16.853v64h-80v-64l-32-32h-64l-40-8z" fill="#b76bbf"/><path d="m48 416 20.859-73.008a53.762 53.762 0 0 1 51.693-38.992h39.448v32h-30.143a24 24 0 0 0 -22.988 17.1l-7.375 24.583a53.762 53.762 0 0 1 -51.494 38.317z" fill="#46349e"/><path d="m224 344 3.039 24.309a68.927 68.927 0 0 1 -27.039 63.691l9.143 32a28.481 28.481 0 0 1 6.857 18.537v5.463h-32l-27-62.333 16.667-15.334 2.333-66.333z" fill="#46349e"/><path d="m384 288h64a16 16 0 0 1 16 16v60.468a16 16 0 0 1 -10.94 15.179l-37.06 12.353v-32l16-8v-16a16 16 0 0 0 -16-16h-32z" fill="#46349e"/><path d="m416 320h-32v-64h-80l-64 32h-48a56 56 0 0 0 -56 56v56l-32 24 16 64h32v-6a30 30 0 0 0 -6-18l-6-24 15.4-8.4a90.513 90.513 0 0 0 40.7-45.844l3.9-9.756h86.348a56 56 0 0 0 32.113-10.123l19.825-13.877h61.714v32l-16 8v32l37.06-12.353a16 16 0 0 0 10.94-15.179v-60.468a16 16 0 0 0 -16-16z" fill="#5f4bbc"/><path d="m200 376a8 8 0 0 1 -8-8v-32h16v32a8 8 0 0 1 -8 8z" fill="#4c3aa3"/><path d="m192 248a8 8 0 0 1 -5.86-13.443l98.754-106.351-98.551-98.549a8 8 0 0 1 11.314-11.314l104 104a8 8 0 0 1 .205 11.1l-104 112a7.976 7.976 0 0 1 -5.862 2.557z" fill="#c04a42"/><path d="m304 40h24l8 16s10.265-4.19 14.5 2c6.5 9.5-4 17.5-4 17.5l8.758 13.3a16 16 0 0 0 13.363 7.2h15.379l-.793-1.586a68.258 68.258 0 0 1 -7.207-30.529v-7.885a32 32 0 0 0 -32-32h-24a16 16 0 0 0 -16 16z" fill="#5f4bbc"/><path d="m336 56-16 16h-16v40h24a8 8 0 0 0 8-8z" fill="#5f4bbc"/><g fill="#a45bad"><path d="m304 184h32v16h-32z"/><path d="m352 184h32v16h-32z"/><path d="m352 208h-16v8h-16v16h16v16h16v-16h32v-16h-32z"/><path d="m336 144h16v32h-16z"/></g><path d="m152 176a33.289 33.289 0 0 0 12.494 26l11.985 9.588a41.356 41.356 0 0 1 15.521 32.289v4.123h-8a41.355 41.355 0 0 0 -20.838-35.907l-21.27-12.155a27.57 27.57 0 0 1 -13.892-23.938v-80a27.57 27.57 0 0 1 13.892-23.938l21.27-12.155a41.355 41.355 0 0 0 20.838-35.907v-8h8v12.123a41.356 41.356 0 0 1 -15.521 32.294l-11.985 9.588a33.289 33.289 0 0 0 -12.494 25.995z" fill="#c04a42"/><path d="m96 120h32v16h-32z" fill="#c04a42"/><path d="m96 144a8.008 8.008 0 0 1 -2.529-.41l-24-8a8 8 0 0 1 0-15.18l24-8a8 8 0 0 1 10.529 7.59v16a8 8 0 0 1 -8 8z" fill="#c04a42"/><path d="m333.833 351.667a7.974 7.974 0 0 1 -10.56 6.767c-15.49-5.607-27.273-21.217-27.273-38.434v-16h16v16c0 10.254 7.371 19.9 16.549 23.319a8.064 8.064 0 0 1 5.284 8.348z" fill="#4c3aa3"/><path d="m152 120h-16a8 8 0 0 0 0 16h8a16 16 0 0 0 16 16h8v-24z" fill="#b76bbf"/><path d="m420.751 159.35-76.751-15.35h-40v-32h24l16 8 77.15-7.715a8 8 0 0 1 5.233 1.3l18.055 12.036a8 8 0 0 1 3.562 6.66v7.438a8 8 0 0 1 -3.562 6.656l-17.681 11.787a8 8 0 0 1 -6.006 1.188z" fill="#cb84d3"/></g></svg>