<svg height="512" viewBox="0 0 512 512" width="512" xmlns="http://www.w3.org/2000/svg"><g id="Flat"><path d="m367.391 76.938a8 8 0 0 0 -7.391-4.938c-24.977 0-31.878-32.217-32.155-33.569a8 8 0 0 0 -15.606-.371c-3.85 15.4-.321 31.489 10.207 46.528a85.263 85.263 0 0 0 16.754 17.812 8 8 0 0 0 10.457-.743l16-16a8 8 0 0 0 1.734-8.719z" fill="#a961b2"/><path d="m191.828 32.012a8.011 8.011 0 0 0 -7.669 6.4 62.969 62.969 0 0 1 -7.223 17.811c-6.393 10.468-14.782 15.777-24.936 15.777a8 8 0 0 0 -5.657 13.657l16 16a8 8 0 0 0 10.457.743 85.263 85.263 0 0 0 16.754-17.812c10.528-15.039 14.057-31.129 10.207-46.528a8.023 8.023 0 0 0 -7.933-6.048z" fill="#a961b2"/><path d="m454.146 306.879-40-48a8 8 0 0 0 -6.146-2.879h-8a8 8 0 0 0 -4.8 1.6l-27.472 20.6-43.29-28.86a8 8 0 0 0 -4.438-1.34h-24a8 8 0 0 0 -8 8v8a8 8 0 0 0 8 8h21.578l45.984 30.656a8 8 0 0 0 9.238-.256l29.867-22.4h1.488l26.879 33.6-6.623 19.871a8 8 0 0 0 14.245 6.968l16-24a8 8 0 0 0 -.51-9.56z" fill="#5f4bbc"/><path d="m288 232h45.784l38.1 22.86a8 8 0 0 0 9.238-.714l48-40a8 8 0 0 0 2.878-6.146v-48a8 8 0 0 0 -2.343-5.657l-16-16a8 8 0 0 0 -12.812 9.235l7.155 14.311v42.266l-32.654 26.123-35.23-21.138a8.009 8.009 0 0 0 -4.116-1.14h-48a8 8 0 0 0 -8 8v8a8 8 0 0 0 8 8z" fill="#5f4bbc"/><path d="m407.353 324.849a8 8 0 0 0 -7.353-4.849h-45.333l-29.867-22.4a8 8 0 0 0 -4.8-1.6h-32a8 8 0 0 0 -8 8v8a8 8 0 0 0 8 8h29.333l29.867 22.4a8 8 0 0 0 4.8 1.6h35.056l20.465 40.931-7.282 29.129a8 8 0 0 0 14.916 5.518l16-32a8 8 0 0 0 .2-6.729z" fill="#5f4bbc"/><path d="m224 320a8 8 0 0 0 -6.247 3l-29.6 37h-36.153a8 8 0 0 0 -5.657 2.343l-16 16a8 8 0 0 0 -2.343 5.657v56a8 8 0 0 0 1.344 4.438l16 24a8 8 0 0 0 14.245-6.968l-7.589-22.77v-51.387l3.313-3.313h44.687a8 8 0 0 0 6.247-3l28.515-35.644 18.708 6.236c.066.022.133.033.2.053.158.048.317.09.478.128s.3.068.444.095.319.051.48.069.3.034.454.043.322.012.483.012.3 0 .455-.012.32-.025.48-.044.305-.039.456-.066.31-.062.464-.1.31-.078.463-.124c.068-.021.137-.033.2-.055l18.708-6.236 28.518 35.645a8 8 0 0 0 6.247 3h44.687l3.313 3.313v51.387l-7.589 22.768a8 8 0 0 0 14.245 6.968l16-24a8 8 0 0 0 1.344-4.436v-56a8 8 0 0 0 -2.343-5.657l-16-16a8 8 0 0 0 -5.657-2.343h-36.155l-29.6-37a8 8 0 0 0 -6.245-3z" fill="#5f4bbc"/><path d="m83.515 343.187a8 8 0 0 0 4.074-9.717l-6.623-19.87 26.879-33.6h1.488l29.867 22.4a8 8 0 0 0 9.237.256l45.985-30.656h21.578a8 8 0 0 0 8-8v-8a8 8 0 0 0 -8-8h-24a8 8 0 0 0 -4.438 1.344l-43.29 28.86-27.472-20.604a8 8 0 0 0 -4.8-1.6h-8a8 8 0 0 0 -6.146 2.879l-40 48a8 8 0 0 0 -.51 9.559l16 24a8 8 0 0 0 10.171 2.749z" fill="#5f4bbc"/><path d="m82.878 214.146 48 40a8 8 0 0 0 9.238.714l38.1-22.86h45.784a8 8 0 0 0 8-8v-8a8 8 0 0 0 -8-8h-48a8.009 8.009 0 0 0 -4.116 1.14l-35.23 21.138-32.654-26.123v-42.266l7.155-14.311a8 8 0 0 0 -12.812-9.235l-16 16a8 8 0 0 0 -2.343 5.657v48a8 8 0 0 0 2.878 6.146z" fill="#5f4bbc"/><path d="m232 312v-8a8 8 0 0 0 -8-8h-32a8 8 0 0 0 -5.657 2.343l-21.656 21.657h-52.687a8 8 0 0 0 -7.353 4.849l-24 56a8 8 0 0 0 .2 6.729l16 32a8 8 0 0 0 14.916-5.518l-7.282-29.129 20.463-40.931h43.056a8 8 0 0 0 5.657-2.343l21.656-21.657h28.687a8 8 0 0 0 8-8z" fill="#5f4bbc"/><path d="m433 345.5c10-11 11.686-38.21-5.855-54.671-21.666-20.333-39.165-9.33-52.666-5.336-21.5 0-30.668-27.994-30.668-27.994v27.554c0 24.5 28.183 27.531 28.183 27.531s1.485 13.912 11.639 24.024c17.026 16.956 39.658 19.571 49.367 8.892z" fill="#c378cb"/><path d="m304 128a32 32 0 0 1 32 32v48a0 0 0 0 1 0 0 32 32 0 0 1 -32-32v-48a0 0 0 0 1 0 0z" fill="#a961b2" transform="matrix(0 1 -1 0 488 -152)"/><path d="m392 104v-32a48 48 0 0 0 -48-48s24 8 24 32c0 8 .028 16 0 16-17.673 0-40 5.49-40 32s14.327 56 32 56 32-29.49 32-56z" fill="#c378cb"/><path d="m208 128a0 0 0 0 1 0 0v48a32 32 0 0 1 -32 32 0 0 0 0 1 0 0v-48a32 32 0 0 1 32-32z" fill="#a961b2" transform="matrix(0 1 -1 0 360 -24)"/><path d="m120 104v-32a48 48 0 0 1 48-48s-24 8-24 32c0 8-.028 16 0 16 17.673 0 40 5.49 40 32s-14.327 56-32 56-32-29.49-32-56z" fill="#c378cb"/><path d="m441.98 392c0 12.96-3.7 24.47-9.44 31.78a23.869 23.869 0 0 1 -6.63 5.97 29.116 29.116 0 0 1 -.7 8.27c-1.86 8.45-7.12 17.83-15.25 25.96-10.5 10.5-23.09 16.23-33.07 16a19.206 19.206 0 0 1 -8.43-1.97 35.373 35.373 0 0 1 -7.35 4.66 58.079 58.079 0 0 1 -25.11 5.33 59.624 59.624 0 0 1 -23.04-4.38 39.241 39.241 0 0 1 -7.98-4.47 17.534 17.534 0 0 1 -7.93 2.69c-10.24 1.08-23.81-4.68-35.01-15.88-8.75-8.75-14.18-18.95-15.62-27.88a25.362 25.362 0 0 1 .09-9.34 25.679 25.679 0 0 1 -5.66-5.73c-5.41-7.34-8.85-18.5-8.85-31.01 0-14.61 4.7-27.38 11.72-34.36a33.3 33.3 0 0 1 -19.31-20.41l-20.02-60.08a85.422 85.422 0 0 1 2.97-61.72l18.14-40.81a24.621 24.621 0 0 1 22.5-14.62 8 8 0 0 1 8 8 8 8 0 0 1 8-8 24.621 24.621 0 0 1 22.5 14.62l18.14 40.81a85.431 85.431 0 0 1 7.36 34.7 85.245 85.245 0 0 1 -4.39 27.02l-20.02 60.08a33.3 33.3 0 0 1 -19.31 20.41c7.02 6.98 11.72 19.75 11.72 34.36 0 9.91-2.17 18.97-5.75 25.95a58.267 58.267 0 0 1 21.73 14.07 61.705 61.705 0 0 1 11.3 15.28c7.27-4.5 17.45-7.3 28.72-7.3 10.89 0 20.75 2.61 27.96 6.85a61.162 61.162 0 0 1 12.06-16.81c7.07-7.07 15.09-11.97 22.62-14.36a59.175 59.175 0 0 1 -4.66-23.68c0-22.09 10.74-40 24-40s24 17.91 24 40z" fill="#c378cb"/><path d="m248 168h16v48h-16z" fill="#a961b2"/><path d="m272 184h16v16h-16z" fill="#5f4bbc"/><path d="m224 184h16v16h-16z" fill="#5f4bbc"/><g fill="#a961b2"><path d="m224 232h64v16h-64z"/><path d="m224 264h64v16h-64z"/><path d="m240 296h32v16h-32z"/><path d="m261.72 430.71-15.3 7.37a25.362 25.362 0 0 1 .09-9.34 25.679 25.679 0 0 1 -5.66-5.73l13.93-6.72z"/><path d="m314.35 463.82-1.39 19.8a39.241 39.241 0 0 1 -7.98-4.47 17.534 17.534 0 0 1 -7.93 2.69l1.34-19.14z"/><path d="m376.89 479.98a19.206 19.206 0 0 1 -8.43-1.97 35.373 35.373 0 0 1 -7.35 4.66l-2.54-19.64 15.86-2.06z"/><path d="m425.91 429.75a29.116 29.116 0 0 1 -.7 8.27l-16-7.23 6.58-14.58 16.75 7.57a23.869 23.869 0 0 1 -6.63 5.97z"/></g></g></svg>