<svg height="512" viewBox="0 0 512 512" width="512" xmlns="http://www.w3.org/2000/svg"><g id="Flat"><path d="m392 24h56v80h-56z" fill="#a45bad"/><path d="m64 488h304a40 40 0 0 0 40-40v-88l-24-16 24-16v-112l-24-16 24-16v-120a40 40 0 0 1 40-40h-344a40 40 0 0 0 -40 40v16l24 16-24 16v176l24 16-24 16z" fill="#c378cb"/><circle cx="448" cy="64" fill="#46349e" r="40"/><path d="m368 408h-304a40 40 0 0 0 -40 40 40 40 0 0 0 40 40h304a40 40 0 0 1 -40-40 40 40 0 0 1 40-40z" fill="#5f4bbc"/><circle cx="368" cy="448" fill="#46349e" r="40"/><circle cx="448" cy="64" fill="#362684" r="16"/><circle cx="368" cy="448" fill="#362684" r="16"/><path d="m72 432h16v16h-16z" fill="#4c3aa3"/><path d="m168 448h16v16h-16z" fill="#4c3aa3"/><path d="m200 432h16v16h-16z" fill="#4c3aa3"/><path d="m280 448h16v16h-16z" fill="#4c3aa3"/><g fill="#a961b2"><path d="m136 96h200v16h-200z"/><path d="m184 136h176v16h-176z"/><path d="m112 136h56v16h-56z"/><path d="m112 176h248v16h-248z"/><path d="m312 216h48v16h-48z"/><path d="m112 216h184v16h-184z"/><path d="m112 256h248v16h-248z"/><path d="m296 296h64v16h-64z"/><path d="m208 296h72v16h-72z"/><path d="m112 296h80v16h-80z"/><path d="m320 336h40v16h-40z"/><path d="m112 336h192v16h-192z"/></g><path d="m136 56h16v16h-16z" fill="#b76bbf"/><path d="m256 48h16v16h-16z" fill="#b76bbf"/><path d="m368 104h16v16h-16z" fill="#b76bbf"/><path d="m152 368h16v16h-16z" fill="#b76bbf"/><path d="m216 160h16v16h-16z" fill="#b76bbf"/><path d="m344 368h16v16h-16z" fill="#b76bbf"/></g></svg>