<svg height="512" viewBox="0 0 512 512" width="512" xmlns="http://www.w3.org/2000/svg"><g id="Flat"><circle cx="256" cy="256" fill="#5540b0" r="232"/><circle cx="256" cy="256" fill="#6754c4" r="176"/><circle cx="256" cy="256" fill="#bc4598" r="120"/><path d="m191.579 298.768-12.856-9.524 4.628-6.244a20.658 20.658 0 0 1 19.923-8.254 4.709 4.709 0 0 0 4.713-1.951l4.416-5.958 6.1-10 13.658 8.332-6.288 10.308q-.187.307-.4.6l-4.629 6.246a20.644 20.644 0 0 1 -19.924 8.252 4.706 4.706 0 0 0 -4.713 1.952z" fill="#f98500"/><path d="m293.822 253.345-12.978-9.356 10.251-14.22c.019-.029.04-.057.06-.084a20.65 20.65 0 0 1 19.925-8.254 4.712 4.712 0 0 0 4.713-1.952l4.627-6.247 12.857 9.524-4.629 6.244a20.649 20.649 0 0 1 -19.922 8.254 4.7 4.7 0 0 0 -4.689 1.919z" fill="#f98500"/><path d="m247.693 233.85-11.64-8.288-.124-.089-6.246-4.629a20.648 20.648 0 0 1 -8.252-19.924 4.709 4.709 0 0 0 -1.952-4.713l-6.247-4.628 9.524-12.856 6.244 4.628a20.655 20.655 0 0 1 8.254 19.923 4.705 4.705 0 0 0 1.951 4.713l6.187 4.585 11.578 8.244z" fill="#f98500"/><path d="m289.244 333.277-6.244-4.629a20.653 20.653 0 0 1 -8.254-19.922 4.705 4.705 0 0 0 -1.951-4.713l-6-4.451-11.059-6.962 8.528-13.54 11.307 7.123c.171.108.337.221.5.341l6.246 4.629a20.648 20.648 0 0 1 8.252 19.924 4.709 4.709 0 0 0 1.952 4.713l6.247 4.627z" fill="#f98500"/><path d="m224.863 334.149-1.144-7.689a20.654 20.654 0 0 1 8.254-19.925 4.706 4.706 0 0 0 1.951-4.712l-1.129-7.586-2.674-15.182 15.758-2.776 2.692 15.288c.012.071.024.14.034.21l1.145 7.691a20.654 20.654 0 0 1 -8.253 19.924 4.709 4.709 0 0 0 -1.952 4.713l1.144 7.689z" fill="#f98500"/><path d="m265.081 232.3-2.837-19.813a20.635 20.635 0 0 1 8.259-19.88 4.709 4.709 0 0 0 1.952-4.713l-1.144-7.689 15.826-2.355 1.144 7.689a20.654 20.654 0 0 1 -8.254 19.925 4.706 4.706 0 0 0 -1.951 4.712l2.843 19.856z" fill="#f98500"/><path d="m209.314 249.99a20.6 20.6 0 0 1 -16.706-8.493 4.71 4.71 0 0 0 -4.713-1.952l-7.689 1.144-2.355-15.826 7.689-1.144a20.652 20.652 0 0 1 19.925 8.254 4.707 4.707 0 0 0 4.712 1.951l7.627-1.135 14.225-2.35 2.608 15.788-14.288 2.359-.126.019-7.691 1.145a21.84 21.84 0 0 1 -3.218.24z" fill="#f98500"/><path d="m323.244 288.521a20.6 20.6 0 0 1 -16.709-8.494 4.707 4.707 0 0 0 -4.712-1.951l-7.366 1.1-15.468 3.618-3.644-15.58 15.788-3.692q.321-.075.644-.123l7.691-1.145a20.65 20.65 0 0 1 19.924 8.253 4.7 4.7 0 0 0 4.713 1.952l7.689-1.144 2.355 15.826-7.689 1.144a21.96 21.96 0 0 1 -3.216.236z" fill="#f98500"/><g fill="#ffba40"><circle cx="256" cy="256" r="40"/><path d="m254.345 230.577-7.05-14.1a32.919 32.919 0 0 1 2.049-32.915 16.889 16.889 0 0 0 1.051-16.883l-1.551-3.1 14.312-7.154 1.55 3.1a32.922 32.922 0 0 1 -2.05 32.915 16.889 16.889 0 0 0 -1.051 16.883l7.05 14.1z"/><path d="m248.844 355.577-1.55-3.1a32.922 32.922 0 0 1 2.05-32.915 16.889 16.889 0 0 0 1.051-16.883l-1.551-3.1c-.048-.1-.095-.195-.139-.294l-6-13.333 14.59-6.566 5.934 13.184 1.477 2.955a32.922 32.922 0 0 1 -2.05 32.915 16.889 16.889 0 0 0 -1.051 16.883l1.551 3.1z"/><path d="m201.8 268.163a32.861 32.861 0 0 1 -18.236-5.507 16.885 16.885 0 0 0 -16.883-1.051l-3.1 1.551-7.154-14.312 3.1-1.55a32.925 32.925 0 0 1 32.915 2.05 16.883 16.883 0 0 0 16.883 1.051l2.509-1.254 10.466-7.611 9.41 12.94-11 8a7.947 7.947 0 0 1 -1.128.686l-3.1 1.55a32.8 32.8 0 0 1 -14.682 3.457z"/><path d="m285.848 270.271-7.362-14.208 13.833-7.167.1-.052 3.1-1.55a32.925 32.925 0 0 1 32.915 2.05 16.883 16.883 0 0 0 16.883 1.051l3.1-1.551 7.154 14.312-3.1 1.55a32.925 32.925 0 0 1 -32.915-2.05 16.885 16.885 0 0 0 -16.883-1.051l-3.051 1.525z"/><path d="m240.786 239.108-14.951-3.617q-.33-.08-.65-.186l-3.289-1.1a32.921 32.921 0 0 1 -21.824-24.722 16.882 16.882 0 0 0 -11.2-12.682l-3.287-1.1 5.058-15.18 3.289 1.1a32.924 32.924 0 0 1 21.826 24.724 16.88 16.88 0 0 0 11.195 12.681l2.969.991 14.622 3.538z"/><path d="m321.353 331.472-3.289-1.1a32.924 32.924 0 0 1 -21.826-24.724 16.88 16.88 0 0 0 -11.195-12.681l-2.557-.853-15.517-2.014 2.062-15.868 16.284 2.118a7.938 7.938 0 0 1 1.5.344l3.289 1.1a32.921 32.921 0 0 1 21.824 24.722 16.882 16.882 0 0 0 11.2 12.682l3.287 1.1z"/><path d="m195.708 326.411-15.18-5.058 1.1-3.289a32.924 32.924 0 0 1 24.724-21.826 16.88 16.88 0 0 0 12.681-11.195l.851-2.55 1.516-11.843 15.872 2.034-1.621 12.616a8.006 8.006 0 0 1 -.346 1.514l-1.1 3.289a32.921 32.921 0 0 1 -24.722 21.824 16.882 16.882 0 0 0 -12.682 11.2z"/><path d="m288.111 241.965-15.222-4.93 4.881-15.072a32.949 32.949 0 0 1 24.744-21.891 16.882 16.882 0 0 0 12.682-11.2l1.1-3.287 15.18 5.058-1.1 3.289a32.924 32.924 0 0 1 -24.724 21.826 16.88 16.88 0 0 0 -12.681 11.195z"/></g><path d="m256 384a128 128 0 1 1 128-128 128.146 128.146 0 0 1 -128 128zm0-240a112 112 0 1 0 112 112 112.127 112.127 0 0 0 -112-112z" fill="#7e6dd1"/><path d="m256 496a240 240 0 0 1 -169.7-409.7 240 240 0 1 1 339.41 339.41 238.427 238.427 0 0 1 -169.71 70.29zm0-464a224 224 0 0 0 -158.392 382.392 224 224 0 0 0 316.784-316.784 222.535 222.535 0 0 0 -158.392-65.608z" fill="#705dc9"/><path d="m256 440c-101.458 0-184-82.542-184-184s82.542-184 184-184 184 82.542 184 184-82.542 184-184 184zm0-352c-92.636 0-168 75.364-168 168s75.364 168 168 168 168-75.364 168-168-75.364-168-168-168z" fill="#705dc9"/><circle cx="88" cy="96" fill="#7e6dd1" r="24"/><circle cx="432" cy="224" fill="#7e6dd1" r="16"/><circle cx="208" cy="424" fill="#7e6dd1" r="24"/><circle cx="392" cy="64" fill="#7e6dd1" r="16"/><circle cx="56" cy="368" fill="#7e6dd1" r="16"/><circle cx="440" cy="400" fill="#7e6dd1" r="24"/></g></svg>