<svg height="512" viewBox="0 0 512 512" width="512" xmlns="http://www.w3.org/2000/svg"><g id="Flat"><path d="m432 504h-304a48 48 0 0 1 -28.8-9.6 48 48 0 0 1 -19.2-38.4v-64h352z" fill="#4c3aa3"/><path d="m128 392a48 48 0 0 0 -48 48v-368a48 48 0 0 1 48-48h304v368z" fill="#5f4bbc"/><path d="m404.86 464a86.572 86.572 0 0 0 11.14 24h-288a48 48 0 0 1 0-96h288a86.572 86.572 0 0 0 -11.14 24 85.173 85.173 0 0 0 -3.02 16c-.26 2.66-.38 5.33-.38 8s.12 5.34.38 8a85.173 85.173 0 0 0 3.02 16z" fill="#bc4598"/><path d="m404.86 464h-318.44a47.643 47.643 0 0 1 -5.75-16h321.17a85.173 85.173 0 0 0 3.02 16z" fill="#a33484"/><path d="m184 496-24-24-24 24v-64h48z" fill="#932b22"/><path d="m352 352h-192a32 32 0 0 0 -32-32v-224a32 32 0 0 0 32-32h192a32 32 0 0 0 32 32v224a32 32 0 0 0 -32 32z" fill="#4f3dab"/><path d="m384 56h16v16h-16z" fill="#6754c4"/><path d="m384 344h16v16h-16z" fill="#6754c4"/><path d="m112 56h16v16h-16z" fill="#6754c4"/><path d="m112 344h16v16h-16z" fill="#6754c4"/><path d="m256 280a72 72 0 1 1 72-72 72.081 72.081 0 0 1 -72 72zm0-128a56 56 0 1 0 56 56 56.063 56.063 0 0 0 -56-56z" fill="#3c2a8f"/><path d="m296 264a7.984 7.984 0 0 1 -4.437-1.344l-35.563-23.708-35.562 23.708a8 8 0 0 1 -11.972-9.346l13.284-37.2-26.188-17.458a8 8 0 0 1 4.438-14.652h33.22l15.246-42.69a8 8 0 0 1 15.068 0l15.246 42.69h33.22a8 8 0 0 1 4.438 14.656l-26.188 17.458 13.284 37.2a8 8 0 0 1 -7.534 10.686zm-25.577-34.667 9.922 6.614-3.817-10.684zm-34.949-4.07-3.817 10.684 9.922-6.614zm5.547-15.532 14.979 9.988 14.98-9.988-3.475-9.731h-23.005zm43.479-9.731.208.583.875-.583zm-58.073 0 .875.583.208-.583zm23.787-16h11.582l-5.796-16.214z" fill="#bc4598"/><g fill="#3c2a8f"><path d="m248 104h16v16h-16z"/><path d="m248 296h16v16h-16z"/><path d="m200 116.862h15.999v16h-15.999z" transform="matrix(.866 -.5 .5 .866 -34.564 120.728)"/><path d="m296 283.138h15.999v16h-15.999z" transform="matrix(.866 -.5 .5 .866 -104.841 191.005)"/><path d="m164.862 152h15.999v16h-15.999z" transform="matrix(.5 -.866 .866 .5 -52.133 229.703)"/><path d="m331.139 248h15.999v16h-15.999z" transform="matrix(.5 -.866 .866 .5 -52.133 421.703)"/><path d="m152 200h16v16h-16z"/><path d="m344 200h16v16h-16z"/><path d="m164.862 248h16v15.999h-16z" transform="matrix(.866 -.5 .5 .866 -104.845 120.737)"/><path d="m331.138 152h16v15.999h-16z" transform="matrix(.866 -.5 .5 .866 -34.563 191.016)"/><path d="m200 283.139h16v15.999h-16z" transform="matrix(.5 -.866 .866 .5 -148.134 325.692)"/><path d="m296 116.862h16v15.999h-16z" transform="matrix(.5 -.866 .866 .5 43.861 325.695)"/></g><path d="m352 360h-192a8 8 0 0 1 -8-8 24.028 24.028 0 0 0 -24-24 8 8 0 0 1 -8-8v-224a8 8 0 0 1 8-8 24.028 24.028 0 0 0 24-24 8 8 0 0 1 8-8h192a8 8 0 0 1 8 8 24.028 24.028 0 0 0 24 24 8 8 0 0 1 8 8v224a8 8 0 0 1 -8 8 24.028 24.028 0 0 0 -24 24 8 8 0 0 1 -8 8zm-184.8-16h177.6a40.126 40.126 0 0 1 31.2-31.2v-209.6a40.126 40.126 0 0 1 -31.2-31.2h-177.6a40.126 40.126 0 0 1 -31.2 31.2v209.6a40.126 40.126 0 0 1 31.2 31.2z" fill="#6754c4"/><path d="m404.19 416a85.173 85.173 0 0 0 -3.02 16h-321.17a47.643 47.643 0 0 1 5.75-16z" fill="#a33484"/></g></svg>