<svg height="512" viewBox="0 0 512 512" width="512" xmlns="http://www.w3.org/2000/svg"><g id="Flat"><path d="m312 248 56.15-92.83 15.85-27.17-27.17 15.85-100.83 56.15-100.83-56.15-27.17-15.85 15.85 27.17 56.15 92.83-56.15 100.83-15.85 27.17 27.17-15.85 100.83-56.15 100.83 56.15 27.17 15.85-15.85-27.17z" fill="#f9a11b"/><path d="m197.66 186.34-11.32 11.32-42.49-42.49-15.85-27.17 27.17 15.85z" fill="#fcac1e"/><path d="m384 128-15.85 27.17-42.49 42.49-11.32-11.32 42.49-42.49z" fill="#fcac1e"/><path d="m384 376-27.17-15.85-42.49-42.49 11.32-11.32 42.49 42.49z" fill="#fcac1e"/><path d="m197.66 317.66-42.49 42.49-27.17 15.85 15.85-27.17 42.49-42.49z" fill="#fcac1e"/><path d="m296 216-40 40-40-40 32-115.2 8-28.8 8 28.8z" fill="#ffba40"/><path d="m256 256-40 32-144-32 28.8-8 115.2-32z" fill="#fcac1e"/><path d="m296 288-32 134.4-8 33.6-8-33.6-32-134.4 40-32z" fill="#ffba40"/><path d="m440 256-144 32-40-32 40-40 115.2 32z" fill="#fcac1e"/><path d="m440 256-36 8h-140v158.4l-8 33.6-8-33.6v-158.4h-140l-36-8 28.8-8h147.2v-147.2l8-28.8 8 28.8v147.2h147.2z" fill="#ffc970"/><path d="m248 16h16v32h-16z" fill="#ffba40"/><path d="m16 248h32v16h-32z" fill="#ffba40"/><path d="m24 20.686h16v22.627h-16z" fill="#ffba40" transform="matrix(.707 -.707 .707 .707 -13.255 32)"/><path d="m73.75 38.97h16v85.56h-16z" fill="#ffba40" transform="matrix(.707 -.707 .707 .707 -33.862 81.75)"/><path d="m464 248h32v16h-32z" fill="#ffba40"/><path d="m468.686 24h22.627v16h-22.627z" fill="#ffba40" transform="matrix(.707 -.707 .707 .707 117.948 348.768)"/><path d="m387.47 73.75h85.56v16h-85.56z" fill="#ffba40" transform="matrix(.707 -.707 .707 .707 68.201 328.161)"/><path d="m248 480h16v16h-16z" fill="#ffba40"/><path d="m464 248h32v16h-32z" fill="#ffba40"/><path d="m480 468.686h16v22.627h-16z" fill="#ffba40" transform="matrix(.707 -.707 .707 .707 -196.479 485.657)"/><path d="m426.25 377.813h16v96.874h-16z" fill="#ffba40" transform="matrix(.707 -.707 .707 .707 -174.215 431.907)"/><path d="m16 248h32v16h-32z" fill="#ffba40"/><path d="m12.686 472h22.627v16h-22.627z" fill="#ffba40" transform="matrix(.707 -.707 .707 .707 -332.368 157.544)"/><path d="m29.313 418.25h96.874v16h-96.874z" fill="#ffba40" transform="matrix(.707 -.707 .707 .707 -278.621 179.808)"/><g fill="#fedf7c"><path d="m32 129.056h16.001v53.488h-16.001z" transform="matrix(.441 -.897 .897 .441 -117.464 122.955)"/><path d="m148 13.167h16v53.666h-16z" transform="matrix(.894 -.447 .447 .894 -1.419 73.988)"/><path d="m184 76.223h16v71.554h-16z" transform="matrix(.894 -.447 .447 .894 -29.818 97.689)"/><path d="m104.4 156.58h16.001v70.839h-16.001z" transform="matrix(.452 -.892 .892 .452 -109.668 205.547)"/><path d="m329.456 32h53.488v16h-53.488z" transform="matrix(.441 -.897 .897 .441 163.124 341.994)"/><path d="m445.167 148h53.666v16h-53.666z" transform="matrix(.894 -.447 .447 .894 -19.935 227.554)"/><path d="m364.223 184h71.554v16h-71.554z" transform="matrix(.894 -.447 .447 .894 -43.636 199.155)"/><path d="m284.58 104.4h70.84v16h-70.84z" transform="matrix(.452 -.892 .892 .452 75.157 347.103)"/><path d="m464 321.456h16.001v53.488h-16.001z" transform="matrix(.441 -.897 .897 .441 -48.729 618.142)"/><path d="m356 445.167h16v53.666h-16z" transform="matrix(.894 -.447 .447 .894 -172.656 212.616)"/><path d="m320 364.223h16v71.554h-16z" transform="matrix(.894 -.447 .447 .894 -144.258 188.915)"/><path d="m391.599 276.58h16.001v70.839h-16.001z" transform="matrix(.452 -.892 .892 .452 -59.263 527.567)"/><path d="m121.056 464h53.488v16h-53.488z" transform="matrix(.441 -.897 .897 .441 -340.98 396.352)"/><path d="m13.167 340h53.666v16h-53.666z" transform="matrix(.894 -.447 .447 .894 -151.407 54.628)"/><path d="m76.223 304h71.554v16h-71.554z" transform="matrix(.894 -.447 .447 .894 -127.706 83.027)"/><path d="m148.58 391.6h70.84v16h-70.84z" transform="matrix(.452 -.892 .892 .452 -255.623 383.224)"/></g></g></svg>