<svg height="512" viewBox="0 0 512 512" width="512" xmlns="http://www.w3.org/2000/svg"><g id="Flat"><path d="m196.709 169.072-10.85-22.7a77.084 77.084 0 0 1 -7.373-28.206 77.079 77.079 0 0 0 -21.456-48.488l-15.53-16.089 40.823 22.547a48.036 48.036 0 0 1 23.848 32.464 48.038 48.038 0 0 0 8.636 19.227l17.99 23.995z" fill="#f98500"/><path d="m315.291 342.928 10.85 22.7a77.084 77.084 0 0 1 7.373 28.206 77.079 77.079 0 0 0 21.456 48.492l15.53 16.085-40.823-22.547a48.036 48.036 0 0 1 -23.848-32.464 48.038 48.038 0 0 0 -8.636-19.227l-17.99-24z" fill="#f98500"/><path d="m169.072 315.291-22.7 10.85a77.084 77.084 0 0 1 -28.206 7.373 77.079 77.079 0 0 0 -48.488 21.456l-16.089 15.53 22.547-40.823a48.036 48.036 0 0 1 32.464-23.848 48.038 48.038 0 0 0 19.227-8.636l23.995-17.99z" fill="#f98500"/><path d="m342.928 196.709 22.7-10.85a77.084 77.084 0 0 1 28.206-7.373 77.079 77.079 0 0 0 48.492-21.456l16.085-15.53-22.547 40.823a48.036 48.036 0 0 1 -32.464 23.848 48.038 48.038 0 0 0 -19.227 8.636l-24 17.99z" fill="#f98500"/><path d="m152.607 236.457-23.719-8.376a77.08 77.08 0 0 1 -25.159-14.731 77.087 77.087 0 0 0 -49.461-19.118l-22.357-.4 44.81-12.924a48.036 48.036 0 0 1 39.815 6.092 48.038 48.038 0 0 0 19.7 7.489l29.688 4.246z" fill="#f98500"/><path d="m359.393 275.543 23.719 8.376a77.08 77.08 0 0 1 25.159 14.731 77.087 77.087 0 0 0 49.461 19.118l22.357.4-44.81 12.924a48.036 48.036 0 0 1 -39.815-6.092 48.038 48.038 0 0 0 -19.7-7.489l-29.688-4.246z" fill="#f98500"/><path d="m236.457 359.393-8.376 23.719a77.08 77.08 0 0 1 -14.731 25.159 77.087 77.087 0 0 0 -19.118 49.461l-.4 22.357-12.924-44.81a48.036 48.036 0 0 1 6.092-39.815 48.038 48.038 0 0 0 7.489-19.7l4.246-29.688z" fill="#f98500"/><path d="m275.543 152.607 8.376-23.719a77.08 77.08 0 0 1 14.731-25.159 77.087 77.087 0 0 0 19.118-49.461l.4-22.357 12.924 44.81a48.036 48.036 0 0 1 -6.092 39.815 48.038 48.038 0 0 0 -7.489 19.7l-4.246 29.688z" fill="#f98500"/><path d="m199.43 154.18-22.62 22.63-5.77 5.76-16.86 16.86-25.46-25.45a60.023 60.023 0 0 1 -16.97-33.95 60.257 60.257 0 0 0 -5.73-18.35 61.419 61.419 0 0 0 -4.45-7.48 60.178 60.178 0 0 0 -6.79-8.11l-8.49-8.48 29.79 5.95 8.1 1.62a43.086 43.086 0 0 1 28.49 20.08 43.052 43.052 0 0 0 19.97 17.43z" fill="#fcac1e"/><path d="m425.71 414.39-29.87-5.97-8.02-1.6a43.086 43.086 0 0 1 -28.49-20.08 43.052 43.052 0 0 0 -19.97-17.43l-26.79-11.49 22.63-22.62 5.76-5.77 16.86-16.86 25.46 25.45a60.023 60.023 0 0 1 16.97 33.95 60.043 60.043 0 0 0 16.97 33.94z" fill="#fcac1e"/><path d="m414.39 86.29-5.97 29.86-1.6 8.03a43.086 43.086 0 0 1 -20.08 28.49 43.052 43.052 0 0 0 -17.43 19.97l-11.49 26.79-45.25-45.25 25.45-25.46a60.023 60.023 0 0 1 33.95-16.97 59.821 59.821 0 0 0 25.97-10.28 59.6 59.6 0 0 0 7.97-6.69z" fill="#fcac1e"/><path d="m199.43 357.82-25.45 25.46a60.023 60.023 0 0 1 -33.95 16.97 60.257 60.257 0 0 0 -18.35 5.73 60.37 60.37 0 0 0 -15.59 11.24l-8.48 8.49 5.92-29.63 1.65-8.26a43.086 43.086 0 0 1 20.08-28.49 43.052 43.052 0 0 0 17.43-19.97l11.49-26.79 22.63 22.63 5.76 5.76z" fill="#fcac1e"/><path d="m288 144h-64v-36a60.01 60.01 0 0 1 12-36 59.8 59.8 0 0 0 8.92-17.03 61 61 0 0 0 2.07-8 59.938 59.938 0 0 0 1.01-10.97v-12l16.77 25.15 4.66 6.99a43.115 43.115 0 0 1 5.95 34.35 43.017 43.017 0 0 0 1.79 26.44z" fill="#fcac1e"/><path d="m288 368v36a60.01 60.01 0 0 1 -12 36 59.938 59.938 0 0 0 -12 36v12l-16.85-25.27-4.58-6.87a43.115 43.115 0 0 1 -5.95-34.35 43.017 43.017 0 0 0 -1.79-26.44l-10.83-27.07z" fill="#fcac1e"/><path d="m488 248-25.28 16.86-6.86 4.57a43.115 43.115 0 0 1 -34.35 5.95 43.017 43.017 0 0 0 -26.44 1.79l-27.07 10.83v-64h36a60.01 60.01 0 0 1 36 12 60.013 60.013 0 0 0 36 12z" fill="#fcac1e"/><path d="m144 224v64h-36a60.01 60.01 0 0 1 -36-12 59.978 59.978 0 0 0 -36-12h-12l25.26-16.84 6.88-4.59a43.115 43.115 0 0 1 34.35-5.95 43.017 43.017 0 0 0 26.44-1.79z" fill="#fcac1e"/><g fill="#ffba40"><path d="m181.24 170.15-4.43 6.66-4.44 6.65-1.33-.89-19.13-12.75a55.481 55.481 0 0 1 -21.76-28.49 39.043 39.043 0 0 0 -19.68-22.69l-8.9-4.44a60.178 60.178 0 0 0 -6.79-8.11l-8.49-8.48 29.79 5.95 1.54.77a54.9 54.9 0 0 1 27.71 31.94 39.327 39.327 0 0 0 15.46 20.24z"/><path d="m425.71 414.39-29.87-5.97-1.53-.78a54.874 54.874 0 0 1 -27.64-31.91 39.327 39.327 0 0 0 -15.46-20.24l-20.45-13.64 4.44-6.65 4.43-6.66 1.33.89 19.13 12.75a55.481 55.481 0 0 1 21.76 28.49 39.043 39.043 0 0 0 19.68 22.69l9.02 4.61a59.943 59.943 0 0 0 6.67 7.94z"/><path d="m414.39 86.29-5.97 29.86-.77 1.52a54.887 54.887 0 0 1 -31.92 27.66 39.327 39.327 0 0 0 -20.24 15.46l-13.64 20.45-6.65-4.43-6.66-4.44.89-1.33 12.75-19.13a55.481 55.481 0 0 1 28.49-21.76 39.013 39.013 0 0 0 22.69-19.68l4.58-9a59.6 59.6 0 0 0 7.97-6.69z"/><path d="m183.46 339.63-.89 1.33-12.75 19.13a55.481 55.481 0 0 1 -28.49 21.76 39 39 0 0 0 -22.65 19.6l-4.1 8.72a59.941 59.941 0 0 0 -8.49 7.05l-8.48 8.49 5.92-29.63.72-1.53a.886.886 0 0 1 .08-.17 54.9 54.9 0 0 1 31.94-27.71 39.327 39.327 0 0 0 20.24-15.46l13.64-20.45 6.66 4.44z"/><path d="m259.02 118.33 4.82 24.1-15.68 3.14-.31-1.57-4.52-22.54a55.608 55.608 0 0 1 4.76-35.54 38.955 38.955 0 0 0 2.16-29.87l-3.26-9.08a59.938 59.938 0 0 0 1.01-10.97v-12l16.77 25.15.57 1.59c.02.05.04.11.06.17a54.849 54.849 0 0 1 -3 42.17 39.479 39.479 0 0 0 -3.38 25.25z"/><path d="m261.78 456.03 3.17 9.32a60.084 60.084 0 0 0 -.95 10.65v12l-16.85-25.27-.54-1.59a54.911 54.911 0 0 1 2.99-42.22 39.479 39.479 0 0 0 3.38-25.25l-4.82-24.1 15.68-3.14.31 1.57 4.52 22.54a55.608 55.608 0 0 1 -4.76 35.54 38.928 38.928 0 0 0 -2.13 29.95z"/><path d="m488 248-25.28 16.86-1.63.54a54.9 54.9 0 0 1 -42.17-3 39.458 39.458 0 0 0 -25.24-3.38l-24.11 4.82-1.57-7.84-1.57-7.84 1.57-.31 22.54-4.52a55.608 55.608 0 0 1 35.54 4.76 38.928 38.928 0 0 0 29.95 2.13l9.45-3.15a59.637 59.637 0 0 0 10.52.93z"/><path d="m145.57 263.84-1.57.31-22.54 4.52a55.608 55.608 0 0 1 -35.54-4.76 38.928 38.928 0 0 0 -29.95-2.13l-9.33 3.17a59.972 59.972 0 0 0 -10.64-.95h-12l25.26-16.84 1.61-.55a54.893 54.893 0 0 1 42.21 2.99 39.458 39.458 0 0 0 25.24 3.38l24.11-4.82 1.57 7.84z"/><circle cx="256" cy="256" r="128"/></g><path d="m256 288h-22.111a17.889 17.889 0 0 1 -8-33.889 10.992 10.992 0 0 0 6.111-9.888v-20.371c0-12.791-10.2-23.484-22.745-23.834q-.619-.018-1.255-.018c-18.388 0-24.641 11.205-24.9 11.683l.053-.1-14.31-7.156c.419-.838 10.542-20.427 39.157-20.427q.864 0 1.7.023c21.116.591 38.3 18.458 38.3 39.829v20.371a26.907 26.907 0 0 1 -14.956 24.2 1.889 1.889 0 0 0 .845 3.578h22.111z" fill="#f2951b"/><path d="m329.408 212.532a32.546 32.546 0 0 0 -25.408-12.532c-16.335 0-25.321 12.407-25.408 12.532l-13.184-9.064c.546-.795 13.67-19.468 38.592-19.468s38.046 18.673 38.592 19.468z" fill="#f2951b"/><path d="m272.845 363.578c-.037-.071-6.107-11.578-16.845-11.578-10.755 0-16.787 11.462-16.845 11.578l-14.31-7.156c.417-.833 10.449-20.422 31.155-20.422s30.738 19.589 31.155 20.422z" fill="#f2951b"/><path d="m196 251c-16.6 0-25.218-9.765-26.146-10.879l12.292-10.242-.09-.106c.192.214 4.8 5.227 13.944 5.227 9.174 0 13.812-5.07 13.854-5.121l12.292 10.242c-.928 1.116-9.546 10.879-26.146 10.879z" fill="#f2951b"/><path d="m308 251c-16.6 0-25.218-9.765-26.146-10.879l12.292-10.242-.09-.106c.192.214 4.8 5.227 13.944 5.227 9.174 0 13.812-5.07 13.854-5.121l12.292 10.242c-.928 1.116-9.546 10.879-26.146 10.879z" fill="#f2951b"/><path d="m317.47 319.59c-32.3-10.768-44.488-43.476-44.991-44.862l15.034-5.477c.1.268 10.182 26.881 35.017 35.159z" fill="#f2951b"/><path d="m196.068 316.742-7.469-14.15c20.975-11.071 28.064-25.787 28.133-25.935l14.561 6.632c-.359.796-9.093 19.662-35.225 33.453z" fill="#f2951b"/><path d="m232 304h48v16h-48z" fill="#f2951b"/><path d="m272 152h16v16h-16z" fill="#fcac1e"/><path d="m344 256h16v16h-16z" fill="#fcac1e"/><path d="m152 264h16v16h-16z" fill="#fcac1e"/><path d="m336 288h16v16h-16z" fill="#fcac1e"/></g></svg>