<svg height="512" viewBox="0 0 512 512" width="512" xmlns="http://www.w3.org/2000/svg"><g id="Flat"><rect fill="#5540b0" height="384" rx="24" width="288" x="152" y="24"/><path d="m384 376h-176a24 24 0 0 0 -24-24v-272a24 24 0 0 0 24-24h176a24 24 0 0 0 24 24v272a24 24 0 0 0 -24 24z" fill="#bc4598"/><rect fill="#5f4bbc" height="384" rx="24" width="288" x="56" y="104"/><path d="m112 136h176a24 24 0 0 0 24 24v272a24 24 0 0 0 -24 24h-176a24 24 0 0 0 -24-24v-272a24 24 0 0 0 24-24z" fill="#bc4598"/><path d="m235.672 302.776 44.328-14.776-44.328-14.776 28.328-49.224-49.224 28.328-14.776-76.328-14.776 76.328-49.224-28.328 28.328 49.224-44.328 14.776 44.328 14.776-28.328 49.224 49.224-28.328 14.776 76.328 14.776-76.328 49.224 28.328z" fill="#ffba40"/><g fill="#f2951b"><path d="m112 176h16v16h-16z"/><path d="m112 248h16v16h-16z"/><path d="m152 192h16v16h-16z"/><path d="m272 192h16v16h-16z"/><path d="m112 376h16v16h-16z"/><path d="m160 400h16v16h-16z"/><path d="m280 376h16v16h-16z"/><path d="m232 416h16v16h-16z"/><path d="m272 248h16v16h-16z"/><path d="m232 168h16v16h-16z"/></g></g></svg>