<svg height="512" viewBox="0 0 512 512" width="512" xmlns="http://www.w3.org/2000/svg"><g id="Flat"><path d="m488 360v-58.393a109.6 109.6 0 0 0 -42.315-86.518 109.606 109.606 0 0 0 -67.292-23.089h-10.393v28.7h17.476a74.4 74.4 0 0 1 41.265 12.5 74.392 74.392 0 0 1 32.758 54.5l1.631 16.3c1.817 18.17 11.676 45.871 26.87 56z" fill="#46349e"/><path d="m344 368-45.259 41.007a49.939 49.939 0 0 0 -18.741 38.993h48l16-24 56-48v-112h-96v33.352a82.39 82.39 0 0 0 40 70.648z" fill="#46349e"/><path d="m112 264-48 48 16 32h24v40h-7.308a70.714 70.714 0 0 1 -31.622-7.465 65.541 65.541 0 0 1 -26.889-24.9l-4.841-8.069a65.532 65.532 0 0 1 -9.34-33.719 65.535 65.535 0 0 1 13.108-39.324l34.892-46.523h40z" fill="#46349e"/><path d="m467.588 319.505a84.508 84.508 0 0 1 -19.588-54.105 98.105 98.105 0 0 0 -60.372-90.558l-23.941-9.975a64.013 64.013 0 0 1 -20.64-13.823l-58.854-58.851a96.256 96.256 0 0 0 -68.064-28.193 96.257 96.257 0 0 0 -77.006 38.5l-67.123 89.5v48l24 72h32a16 16 0 0 0 16-16v-16l32 12.8v28.092a55.788 55.788 0 0 0 16.34 39.448l15.32 15.32a55.789 55.789 0 0 0 70.4 6.97l9.94-6.63-24-32-16 16-32-32 8-32h112a115.776 115.776 0 0 0 103.554 64h8.446v24l-36.686 36.687a38.624 38.624 0 0 0 -11.314 27.313h48l16-24 24-24v-56z" fill="#5f4bbc"/><path d="m72 192h-12a12 12 0 0 1 -12-12 12 12 0 0 0 -12-12h-12a27.315 27.315 0 0 1 8 19.314v12.686a24 24 0 0 0 24 24h16z" fill="#a961b2"/><path d="m152 192h20a12 12 0 0 0 12-12 12 12 0 0 1 12-12h12a27.315 27.315 0 0 0 -8 19.314v12.686a24 24 0 0 1 -24 24h-24a16 16 0 0 1 -16-16 16 16 0 0 1 16-16z" fill="#c378cb"/><g fill="#6754c4"><path d="m227.6 251.578-14.311-7.156c6.039-12.077.039-24.763-.022-24.89l14.333-7.11c.4.8 9.677 19.801 0 39.156z"/><path d="m360.845 283.578a87.7 87.7 0 0 1 -8.845-35.578h8l8-.021a72.437 72.437 0 0 0 7.155 28.443z"/><path d="m280 248h16v16h-16z"/><path d="m328 232h-16c0-42.529-20.233-57.207-20.438-57.344l8.876-13.312c1.125.75 27.562 18.968 27.562 70.656z"/><path d="m296 232h-16c0-35.588-28.512-57.384-28.8-57.6l9.6-12.8c1.437 1.078 35.2 26.9 35.2 70.4z"/></g><path d="m144 280a8 8 0 0 1 -8-8v-8a8 8 0 0 1 2.343-5.657l13.657-13.656v-20.687h16v24a8 8 0 0 1 -2.343 5.657l-13.657 13.656v4.687a8 8 0 0 1 -8 8z" fill="#4c3aa3"/><path d="m325.6 291.031a192.238 192.238 0 0 1 -8.577-41.4l15.951-1.264a179.626 179.626 0 0 0 7.784 37.539 8.014 8.014 0 0 1 -4.493 9.985 8.017 8.017 0 0 1 -10.665-4.86z" fill="#4c3aa3"/><rect fill="#4c3aa3" height="28.335" rx="8" width="16" x="168" y="264"/><path d="m226.521 292.291a7.953 7.953 0 0 1 1.223-10.3c9.556-8.635 12.256-17.729 12.256-30.836v-3.155h16v3.155c0 17.666-4.621 31.039-17.5 42.678a7.987 7.987 0 0 1 -11.979-1.542z" fill="#4c3aa3"/></g></svg>