<svg height="512" viewBox="0 0 512 512" width="512" xmlns="http://www.w3.org/2000/svg"><g id="Flat"><path d="m272 128v32l-6.1 2.2a88.487 88.487 0 0 0 -24.88 13.8 86.662 86.662 0 0 0 -11.04 10.37 84.226 84.226 0 0 0 -15.98 26.29c-.27.7-.52 1.41-.77 2.12l-10.73 30.63v.01l-9.56 27.3v.01l-3.8 10.86a90.193 90.193 0 0 1 -85.14 60.41v-257.17c0-.37 0-.75.02-1.12a62.681 62.681 0 0 1 4.53-22.35c.26-.67.54-1.32.84-1.98.36-.82.74-1.63 1.14-2.44.03-.07.07-.14.1-.21a62.174 62.174 0 0 1 4.06-6.95l.01-.01q1.35-2.025 2.86-3.92a62.8 62.8 0 0 1 49.27-23.85h.25a62.842 62.842 0 0 1 51.66 27.07l9.13 13.19 21.98 31.74 6.15 8.89z" fill="#c04a42"/><path d="m456 86.83v257.17a90.18 90.18 0 0 1 -85.14-60.41l-3.96-11.31-.01-.02-20.12-57.48c-.25-.71-.5-1.42-.77-2.12a84.893 84.893 0 0 0 -25.84-35.72c-.13-.11-.27-.22-.41-.32-.25-.22-.51-.42-.77-.62a89.141 89.141 0 0 0 -24.88-13.8l-6.1-2.2v-32l24-34.67 29.26-42.26a62.842 62.842 0 0 1 51.66-27.07h.25a62.82 62.82 0 0 1 62.83 62.83z" fill="#c04a42"/><path d="m416 72v8a8 8 0 0 1 -16 0v-8h-16v8a8 8 0 0 1 -16 0v-8h-16v8a24.031 24.031 0 0 0 16 22.62v1.38a24 24 0 0 0 48 0v-1.38a24.031 24.031 0 0 0 16-22.62v-8zm-16 32a8 8 0 0 1 -16 0v-1.38a23.9 23.9 0 0 0 8-4.75 23.9 23.9 0 0 0 8 4.75z" fill="#b44037"/><path d="m430.935 211.994a8 8 0 0 1 -14.935-3.994v-1.376a24.039 24.039 0 0 0 16-22.624h-16a8 8 0 0 1 -16 0h-16a24.039 24.039 0 0 0 16 22.624v1.376a24 24 0 0 0 44.784 12.006z" fill="#b44037"/><path d="m144 280v54.64a89.52 89.52 0 0 1 -16 6.11v-60.75z" fill="#b44037"/><path d="m176 264v44.14a90.223 90.223 0 0 1 -16 16.37v-60.51z" fill="#b44037"/><path d="m432 280v60.75a89.52 89.52 0 0 1 -16-6.11v-54.64z" fill="#b44037"/><path d="m400 264v60.51a90.223 90.223 0 0 1 -16-16.37v-44.14z" fill="#b44037"/><path d="m240 456-26.534 13.267a9.888 9.888 0 0 0 -5.466 8.844 9.888 9.888 0 0 0 9.889 9.889h22.111z" fill="#cb84d3"/><path d="m191.239 229.9 24.761-61.9h16l8 8h80l8 48 8 56 8 40h40l-16-40-8-56-3.543-69.261a32 32 0 0 0 -31.565-26.739h-110.914a32 32 0 0 0 -29.867 20.513l-26.265 68.287a17.935 17.935 0 0 0 8.719 22.481 17.935 17.935 0 0 0 24.674-9.381z" fill="#cb84d3"/><path d="m229.527 152.631 18.473-24.631 72 48-16 40c25.282 20.226 32 50.848 32 83.225v116.775a120 120 0 0 0 24 72h-120v-223.015a542.311 542.311 0 0 1 3.667-67.318l-7.362-5.464a27.634 27.634 0 0 1 -12.305-22.992 27.629 27.629 0 0 1 5.527-16.58z" fill="#5f4bbc"/><path d="m224 72 8 8v16h24v32h32v-76a28 28 0 1 0 -56 0v4z" fill="#cb84d3"/><path d="m249.52 26.03 30.48 29.97v120a32 32 0 0 0 32-32v-80.73a39.27 39.27 0 0 0 -39.27-39.27h-12.73a27.867 27.867 0 0 0 -10.48 2.03z" fill="#4c3aa3"/><path d="m300.9 317.65a505.068 505.068 0 0 1 -41.392-79.173 8 8 0 0 1 4.668-10.543l.024-.009a7.988 7.988 0 0 1 10.128 4.468 496.687 496.687 0 0 0 40.009 76.568 8.008 8.008 0 0 1 -2.278 11 7.993 7.993 0 0 1 -11.159-2.311z" fill="#4c3aa3"/><path d="m300.683 404.294a283.117 283.117 0 0 1 -44.683-94.548 7.991 7.991 0 0 1 6.32-9.809l.041-.007a8 8 0 0 1 9.189 5.9c3.947 15.371 15.544 52.747 42.118 89.118a7.982 7.982 0 0 1 -1.571 10.978 8.019 8.019 0 0 1 -11.414-1.632z" fill="#4c3aa3"/><path d="m292.564 463.532c-17.622-19.772-27.747-41.58-32.3-53.087a7.989 7.989 0 0 1 5.107-10.563l.017-.006a8 8 0 0 1 9.779 4.671c4.1 10.3 13.407 30.408 29.293 48.282a8.011 8.011 0 0 1 -.289 11l-.006.006a7.99 7.99 0 0 1 -11.601-.303z" fill="#4c3aa3"/><path d="m200.155 305.569c-31.261-156.306-92.819-247.413-93.437-248.315l13.191-9.054c.655.955 16.286 23.878 36.018 66.825 18.127 39.455 43.235 104 59.918 187.407z" fill="#fcac1e"/><g fill="#ffba40"><path d="m118.515 59.879-6.223-.687a31.784 31.784 0 0 1 -27.858-35.136l.006-.056 6.223.687a31.784 31.784 0 0 1 27.858 35.136z"/><path d="m128.222 78.716-5.482 3.117a31.135 31.135 0 0 1 -42.74-12.28l5.482-3.117a31.135 31.135 0 0 1 42.74 12.28z"/><path d="m140.163 101.961-5.081 3.754a31.074 31.074 0 0 1 -43.869-7.052l5.08-3.755a31.075 31.075 0 0 1 43.87 7.052z"/><path d="m150.937 130.356-5.481 3.117a31.137 31.137 0 0 1 -42.741-12.279l5.482-3.118a31.135 31.135 0 0 1 42.74 12.28z"/><path d="m131.129 78.321 4.959-3.919a32.286 32.286 0 0 0 5.524-44.8l-4.959 3.919a32.286 32.286 0 0 0 -5.524 44.8z"/><path d="m141.5 101.783 5.68-2.727a32.159 32.159 0 0 0 14.99-42.5l-5.68 2.727a32.161 32.161 0 0 0 -14.99 42.5z"/><path d="m152.669 129.009 5.649-2.792a32.169 32.169 0 0 0 14.514-42.674l-5.649 2.792a32.168 32.168 0 0 0 -14.514 42.674z"/></g><path d="m131.863 136 40-8 8 32-16 8 25.417 44.285a20.364 20.364 0 0 1 -14.314 30.225 20.364 20.364 0 0 1 -23.242-15.735z" fill="#cb84d3"/></g></svg>