<svg height="512" viewBox="0 0 512 512" width="512" xmlns="http://www.w3.org/2000/svg"><g id="Flat"><path d="m16 280h480v200h-480z" fill="#5f4bbc"/><path d="m16 312h64v16h-64z" fill="#4f3dab"/><path d="m96 312h152v16h-152z" fill="#4f3dab"/><path d="m16 472h480v16h-480z" fill="#4f3dab"/><path d="m16 432h480v16h-480z" fill="#4f3dab"/><path d="m16 392h480v16h-480z" fill="#4f3dab"/><path d="m16 352h480v16h-480z" fill="#4f3dab"/><path d="m272 312h224v16h-224z" fill="#4f3dab"/><path d="m16 272h480v16h-480z" fill="#4f3dab"/><path d="m328 34.426c-40-23.461-72-2.426-72-2.426-64-16-88 8-88 8-64 0-72 41.348-72 41.348-56 22.652-40 72.342-40 72.342a137.489 137.489 0 0 1 80-25.422c75.111 0 136 54.309 136 127.732s-60.889 112-136 112h-120v120h191.986c150.014 0 256.014-78.2 256.014-226.788s-96-203.326-136-226.786z" fill="#c378cb"/><path d="m344.93 44.57c-9.92 12.05-23.53 23.61-40.93 27.43-42.08 9.24-64-8-64-8-24 16-64 8-64 8-8 24-48 32-48 32a85.007 85.007 0 0 1 -7.76 25.16 136.944 136.944 0 0 0 -64.24 24.53s-16-49.69 40-72.34c0 0 8-41.35 72-41.35 0 0 24-24 88-8 0 0 32-21.04 72 2.43 4.9 2.87 10.63 6.21 16.93 10.14z" fill="#d08dd8"/><path d="m72 32h16v16h-16z" fill="#c378cb"/><path d="m408 23.999h16v16h-16z" fill="#c378cb"/><path d="m128 224h16v16h-16z" fill="#c378cb"/><path d="m64 184h16v16h-16z" fill="#c378cb"/><g fill="#b267ba"><path d="m144 400v16c28.092 0 57.97-.72 87.255-9.323l-4.51-15.352c-27.269 8.012-54.701 8.675-82.745 8.675z"/><path d="m326.753 301.608c9.857-32.877 10.03-70.047.475-101.98l-15.328 4.586c8.683 29.016 8.511 62.84-.472 92.8-10.986 36.641-34.69 66.77-68.549 87.13l8.244 13.712c37.329-22.446 63.477-55.728 75.63-96.248z"/><path d="m306.8 157.966-13 9.328a123.281 123.281 0 0 1 10.288 17.135l14.34-7.1a139.312 139.312 0 0 0 -11.628-19.363z"/><path d="m288.5 137.093c-21.767-20.637-50.811-36.177-86.324-46.19l-4.342 15.4c32.991 9.3 59.792 23.566 79.658 42.4z"/><path d="m369.123 382.853c-8.842 12.467-22.2 31.31-60.125 53.22l8 13.854c40.947-23.658 55.525-44.216 65.173-57.82 1.251-1.763 2.432-3.429 3.527-4.887l-12.791-9.612c-1.223 1.634-2.468 3.392-3.784 5.245z"/><path d="m383.275 362.523 13.586 8.452a222.45 222.45 0 0 0 32.1-93.547l-15.9-1.78a206.557 206.557 0 0 1 -29.786 86.875z"/><path d="m410.383 151.779-14.776 6.141a242.988 242.988 0 0 1 18.783 97.954l16 .365a259.145 259.145 0 0 0 -20.007-104.46z"/><path d="m401.258 133.646a126.533 126.533 0 0 0 -16.015-25.31l-12.5 9.992a110.921 110.921 0 0 1 14.194 22.46z"/><path d="m340.4 146.51 13.352-8.817a200.617 200.617 0 0 0 -44.852-48.019l-9.8 12.652a184.658 184.658 0 0 1 41.3 44.184z"/><path d="m370 249.937a207.591 207.591 0 0 1 -16.225 79.952l14.727 6.254a223.716 223.716 0 0 0 17.498-86.165c.08-31.532-6.128-60.992-18.452-87.56l-14.514 6.732c11.336 24.431 17.044 51.612 16.966 80.787z"/><path d="m359.021 353.6-14.042-7.668c-24.349 44.6-58.575 72.395-104.632 84.98l4.216 15.434c49.775-13.599 88.285-44.803 114.458-92.746z"/><path d="m199.288 437.312 1.424 15.937c8.021-.717 15.668-1.608 22.728-2.65l-2.34-15.828c-6.753.997-14.094 1.851-21.812 2.541z"/><path d="m96.945 440h-.945v16h.944c26.082 0 61.577-.01 87.532-1.554l-.952-15.972c-25.482 1.516-60.697 1.526-86.579 1.526z"/><path d="m152.311 104.282c13.716-6.235 23.266-14.1 28.486-23.44 11.96 1.534 38.265 3.269 58.47-7.15 8.992 6.432 29.839 17.353 59.512 8.585a7.98 7.98 0 0 0 5.082-10.626 8.037 8.037 0 0 0 -9.746-4.689c-30.088 8.757-47.708-7.891-48.458-8.62a8 8 0 0 0 -10.095-1c-20.91 13.94-57.632 6.883-57.993 6.811a8 8 0 0 0 -9.159 5.315c-4.345 13.034-22.933 21.219-35 24.883a7.974 7.974 0 0 0 -5.5 9.2 7.987 7.987 0 0 0 10.164 6.069 117.321 117.321 0 0 0 14.237-5.338z"/><path d="m16 440h64v16h-64z"/><path d="m16 400h112v16h-112z"/></g><path d="m464 136h16v16h-16z" fill="#c378cb"/><path d="m184 176h16v16h-16z" fill="#c378cb"/><circle cx="136" cy="176" fill="#d9a0e0" r="16"/><circle cx="136" cy="39.999" fill="#d9a0e0" r="16"/><circle cx="344" cy="47.999" fill="#d9a0e0" r="16"/><circle cx="464" cy="80" fill="#d9a0e0" r="16"/><circle cx="40" cy="56" fill="#d9a0e0" r="16"/><circle cx="216" cy="240" fill="#d9a0e0" r="16"/><circle cx="320" cy="280" fill="#d9a0e0" r="16"/></g></svg>