<svg height="512" viewBox="0 0 512 512" width="512" xmlns="http://www.w3.org/2000/svg"><g id="Flat"><path d="m520 216a103.993 103.993 0 0 0 -176.845-74.217 112 112 0 1 0 -218.508 18.217h-108.647v240h80.366c-.238 2.636-.366 5.3-.366 8a88 88 0 0 0 176 0c0-2.7-.128-5.364-.366-8h35.68a88.009 88.009 0 1 0 146.157-86.962 104.033 104.033 0 0 0 66.529-97.038z" fill="#c378cb"/><g fill="#b267ba"><path d="m231.031 208h-215.031v-16h215.031c35.354 0 64.5-28.315 64.963-63.12a64 64 0 0 0 -63.476-64.88h-.511a64.049 64.049 0 0 0 -62.589 77.458l-15.646 3.352a80.053 80.053 0 0 1 78.872-96.81 80 80 0 0 1 79.348 81.1c-.582 43.5-36.902 78.9-80.961 78.9z"/><path d="m230.744 240h-14.744v-16h14.744c53.494 0 97.123-42.955 97.256-95.753a96 96 0 0 0 -192-1.011 97.04 97.04 0 0 0 1.128 15.541l-15.812 2.446a113.092 113.092 0 0 1 -1.316-18.112 112 112 0 0 1 224 1.176c-.155 61.599-50.961 111.713-113.256 111.713z"/><path d="m16 224h112v16h-112z"/><path d="m184 496a88.012 88.012 0 0 1 -87.566-79.209l15.922-1.582a72 72 0 0 0 143.644-7.756c-.292-39.4-33.04-71.453-73-71.453h-167v-16h167c48.719 0 88.645 39.178 89 87.334a88 88 0 0 1 -88 88.666z"/><path d="m184.026 464c-.728 0-1.456-.013-2.188-.041a56.2 56.2 0 0 1 -53.06-46.627l15.776-2.664a40.134 40.134 0 0 0 37.888 33.3 40 40 0 0 0 41.558-39.814 39.314 39.314 0 0 0 -11.62-28.049 40.882 40.882 0 0 0 -29.162-12.105h-167.218v-16h167.218a56.778 56.778 0 0 1 40.5 16.812 55.855 55.855 0 0 1 -39.692 95.188z"/><path d="m269.714 491.982-11.427-11.2a103.414 103.414 0 0 0 29.713-72.782 104.642 104.642 0 0 0 -2.394-22.293l15.632-3.414a120.712 120.712 0 0 1 2.762 25.707 119.321 119.321 0 0 1 -34.286 83.982z"/><path d="m184 432a24.085 24.085 0 0 1 -20.784-11.994l13.849-8.012a8 8 0 1 0 6.935-11.994h-168v-16h168a24 24 0 0 1 0 48z"/><path d="m232 176h-216v-16h216a31.965 31.965 0 1 0 -29.816-20.352l-14.9 5.826a48.007 48.007 0 1 1 44.716 30.526z"/><path d="m392 432a55.8 55.8 0 0 1 -55.226-46.676l15.779-2.648a40 40 0 1 0 39.447-46.676h-136v-16h136a56 56 0 0 1 0 112z"/><path d="m16 256h120v16h-120z"/><path d="m416 272h-184v-16h184a31.968 31.968 0 1 0 -29.341-19.2l-14.659 6.4a48.007 48.007 0 1 1 44 28.8z"/><path d="m416 304h-400v-16h400a63.921 63.921 0 1 0 -62.414-49.77l-15.6 3.54a80.009 80.009 0 1 1 78.014 62.23z"/><path d="m392 400a24.085 24.085 0 0 1 -20.784-11.994l13.849-8.012a8 8 0 1 0 6.935-11.994h-112v-16h112a24 24 0 0 1 0 48z"/><path d="m392 464v-16a72 72 0 0 0 50.4-123.418l11.2-11.426a88 88 0 0 1 -61.6 150.844z"/><path d="m477.342 150.15a96.047 96.047 0 0 0 -112.521-7.386l-8.543-13.528a112.044 112.044 0 0 1 131.294 8.613z"/><path d="m358.013 105.4a127.146 127.146 0 0 0 -35.659-68.068l11.293-11.332a143.058 143.058 0 0 1 40.118 76.6z"/></g><path d="m408.43 40.43a41.667 41.667 0 0 0 47.14 47.14 41.667 41.667 0 0 0 -47.14-47.14z" fill="#5f4bbc"/><path d="m95.57 64.43a41.667 41.667 0 0 0 -47.14 47.14 41.667 41.667 0 0 0 47.14-47.14z" fill="#5f4bbc"/><path d="m359.57 440.43a41.667 41.667 0 0 0 -47.14 47.14 41.667 41.667 0 0 0 47.14-47.14z" fill="#4c3aa3"/><path d="m152.43 224.43a41.667 41.667 0 0 0 47.14 47.14 41.667 41.667 0 0 0 -47.14-47.14z" fill="#4c3aa3"/></g></svg>